BodoniModa-96ptRegular.ufo
<glyph name="exclam" format="2">
  <advance width="630"/>
  <unicode hex="0021"/>
  <outline>
    <contour>
      <point x="312" y="416" type="curve"/>
      <point x="315" y="416" type="line"/>
      <point x="315" y="716"/>
      <point x="409" y="966"/>
      <point x="431" y="1318" type="curve" smooth="yes"/>
      <point x="431" y="1332"/>
      <point x="434" y="1344"/>
      <point x="434" y="1356" type="curve" smooth="yes"/>
      <point x="434" y="1448"/>
      <point x="407" y="1516"/>
      <point x="313" y="1516" type="curve" smooth="yes"/>
      <point x="219" y="1516"/>
      <point x="195" y="1448"/>
      <point x="195" y="1356" type="curve" smooth="yes"/>
      <point x="195" y="1344"/>
      <point x="195" y="1332"/>
      <point x="195" y="1318" type="curve" smooth="yes"/>
      <point x="217" y="966"/>
      <point x="312" y="716"/>
    </contour>
    <contour>
      <point x="315" y="-20" type="curve" smooth="yes"/>
      <point x="381" y="-20"/>
      <point x="435" y="34"/>
      <point x="435" y="100" type="curve" smooth="yes"/>
      <point x="435" y="166"/>
      <point x="381" y="221"/>
      <point x="315" y="221" type="curve" smooth="yes"/>
      <point x="249" y="221"/>
      <point x="195" y="166"/>
      <point x="195" y="100" type="curve" smooth="yes"/>
      <point x="195" y="34"/>
      <point x="249" y="-20"/>
    </contour>
  </outline>
</glyph>
<glyph name="dollar" format="2">
  <advance width="1109"/>
  <unicode hex="0024"/>
  <outline>
    <contour>
      <point x="570" y="-29" type="curve" smooth="yes"/>
      <point x="852" y="-29"/>
      <point x="1029" y="141"/>
      <point x="1029" y="420" type="curve" smooth="yes"/>
      <point x="1029" y="960"/>
      <point x="260" y="850"/>
      <point x="260" y="1220" type="curve" smooth="yes"/>
      <point x="260" y="1388"/>
      <point x="342" y="1516"/>
      <point x="574" y="1516" type="curve" smooth="yes"/>
      <point x="788" y="1516"/>
      <point x="986" y="1350"/>
      <point x="986" y="1190" type="curve"/>
      <point x="988" y="1190" type="line"/>
      <point x="988" y="1260"/>
      <point x="924" y="1309"/>
      <point x="855" y="1309" type="curve" smooth="yes"/>
      <point x="787" y="1309"/>
      <point x="723" y="1258"/>
      <point x="723" y="1178" type="curve" smooth="yes"/>
      <point x="723" y="1090"/>
      <point x="789" y="1046"/>
      <point x="850" y="1046" type="curve" smooth="yes"/>
      <point x="938" y="1046"/>
      <point x="990" y="1118"/>
      <point x="990" y="1190" type="curve" smooth="yes"/>
      <point x="990" y="1352"/>
      <point x="790" y="1520"/>
      <point x="574" y="1520" type="curve" smooth="yes"/>
      <point x="332" y="1520"/>
      <point x="120" y="1370"/>
      <point x="120" y="1130" type="curve" smooth="yes"/>
      <point x="120" y="610"/>
      <point x="891" y="720"/>
      <point x="891" y="310" type="curve" smooth="yes"/>
      <point x="891" y="112"/>
      <point x="802" y="-25"/>
      <point x="570" y="-25" type="curve" smooth="yes"/>
      <point x="241" y="-25"/>
      <point x="65" y="162"/>
      <point x="65" y="290" type="curve"/>
      <point x="63" y="290" type="line"/>
      <point x="63" y="220"/>
      <point x="128" y="191"/>
      <point x="193" y="191" type="curve" smooth="yes"/>
      <point x="261" y="191"/>
      <point x="328" y="242"/>
      <point x="328" y="322" type="curve" smooth="yes"/>
      <point x="328" y="410"/>
      <point x="261" y="454"/>
      <point x="200" y="454" type="curve" smooth="yes"/>
      <point x="112" y="454"/>
      <point x="61" y="382"/>
      <point x="61" y="290" type="curve" smooth="yes"/>
      <point x="61" y="160"/>
      <point x="238" y="-29"/>
    </contour>
    <contour>
      <point x="454" y="-160" type="line"/>
      <point x="458" y="-160" type="line"/>
      <point x="458" y="1660" type="line"/>
      <point x="454" y="1660" type="line"/>
    </contour>
    <contour>
      <point x="638" y="-160" type="line"/>
      <point x="642" y="-160" type="line"/>
      <point x="642" y="1660" type="line"/>
      <point x="638" y="1660" type="line"/>
    </contour>
  </outline>
</glyph>
<glyph name="parenright" format="2">
  <advance width="723"/>
  <unicode hex="0029"/>
  <outline>
    <contour>
      <point x="38" y="-340" type="line"/>
      <point x="364" y="-200"/>
      <point x="594" y="144"/>
      <point x="594" y="610" type="curve" smooth="yes"/>
      <point x="594" y="1076"/>
      <point x="364" y="1460"/>
      <point x="38" y="1600" type="curve"/>
      <point x="36" y="1596" type="line"/>
      <point x="284" y="1436"/>
      <point x="404" y="994"/>
      <point x="404" y="610" type="curve" smooth="yes"/>
      <point x="404" y="226"/>
      <point x="284" y="-176"/>
      <point x="36" y="-336" type="curve"/>
    </contour>
  </outline>
</glyph>
<glyph name="comma" format="2">
  <advance width="429"/>
  <unicode hex="002C"/>
  <outline>
    <contour>
      <point x="76" y="-294" type="line"/>
      <point x="256" y="-294"/>
      <point x="354" y="-132"/>
      <point x="354" y="18" type="curve" smooth="yes"/>
      <point x="354" y="144"/>
      <point x="292" y="216"/>
      <point x="214" y="216" type="curve" smooth="yes"/>
      <point x="138" y="216"/>
      <point x="80" y="164"/>
      <point x="80" y="98" type="curve" smooth="yes"/>
      <point x="80" y="32"/>
      <point x="120" y="-20"/>
      <point x="206" y="-20" type="curve" smooth="yes"/>
      <point x="290" y="-20"/>
      <point x="347" y="54"/>
      <point x="337" y="114" type="curve"/>
      <point x="335" y="114" type="line"/>
      <point x="388" y="-67"/>
      <point x="282" y="-290"/>
      <point x="76" y="-290" type="curve"/>
    </contour>
  </outline>
</glyph>
<glyph name="period" format="2">
  <advance width="399"/>
  <unicode hex="002E"/>
  <outline>
    <contour>
      <point x="200" y="-20" type="curve" smooth="yes"/>
      <point x="266" y="-20"/>
      <point x="320" y="34"/>
      <point x="320" y="100" type="curve" smooth="yes"/>
      <point x="320" y="166"/>
      <point x="266" y="221"/>
      <point x="200" y="221" type="curve" smooth="yes"/>
      <point x="134" y="221"/>
      <point x="80" y="166"/>
      <point x="80" y="100" type="curve" smooth="yes"/>
      <point x="80" y="34"/>
      <point x="134" y="-20"/>
    </contour>
  </outline>
</glyph>
<glyph name="zero" format="2">
  <advance width="1239"/>
  <unicode hex="0030"/>
  <outline>
    <contour>
      <point x="620" y="-20" type="curve" smooth="yes"/>
      <point x="946" y="-20"/>
      <point x="1160" y="324"/>
      <point x="1160" y="750" type="curve" smooth="yes"/>
      <point x="1160" y="1176"/>
      <point x="926" y="1520"/>
      <point x="620" y="1520" type="curve" smooth="yes"/>
      <point x="314" y="1520"/>
      <point x="80" y="1176"/>
      <point x="80" y="750" type="curve" smooth="yes"/>
      <point x="80" y="324"/>
      <point x="294" y="-20"/>
    </contour>
    <contour>
      <point x="620" y="-16" type="curve" smooth="yes"/>
      <point x="352" y="-16"/>
      <point x="310" y="386"/>
      <point x="310" y="750" type="curve" smooth="yes"/>
      <point x="310" y="1114"/>
      <point x="372" y="1516"/>
      <point x="620" y="1516" type="curve" smooth="yes"/>
      <point x="868" y="1516"/>
      <point x="930" y="1114"/>
      <point x="930" y="750" type="curve" smooth="yes"/>
      <point x="930" y="386"/>
      <point x="888" y="-16"/>
    </contour>
  </outline>
</glyph>
<glyph name="one" format="2">
  <advance width="869"/>
  <unicode hex="0031"/>
  <outline>
    <contour>
      <point x="360" y="2" type="line"/>
      <point x="550" y="2" type="line"/>
      <point x="550" y="1500" type="line"/>
      <point x="134" y="1500" type="line"/>
      <point x="134" y="1496" type="line"/>
      <point x="360" y="1496" type="line"/>
    </contour>
    <contour>
      <point x="100" y="0" type="line"/>
      <point x="770" y="0" type="line"/>
      <point x="770" y="4" type="line"/>
      <point x="100" y="4" type="line"/>
    </contour>
  </outline>
</glyph>
<glyph name="eight" format="2">
  <advance width="1099"/>
  <unicode hex="0038"/>
  <outline>
    <contour>
      <point x="550" y="-20" type="curve" smooth="yes"/>
      <point x="872" y="-20"/>
      <point x="1020" y="140"/>
      <point x="1020" y="380" type="curve" smooth="yes"/>
      <point x="1020" y="609"/>
      <point x="885" y="758"/>
      <point x="593" y="771" type="curve"/>
      <point x="847" y="784"/>
      <point x="980" y="911"/>
      <point x="980" y="1120" type="curve" smooth="yes"/>
      <point x="980" y="1340"/>
      <point x="832" y="1520"/>
      <point x="550" y="1520" type="curve" smooth="yes"/>
      <point x="268" y="1520"/>
      <point x="120" y="1340"/>
      <point x="120" y="1120" type="curve" smooth="yes"/>
      <point x="120" y="911"/>
      <point x="253" y="784"/>
      <point x="507" y="771" type="curve"/>
      <point x="215" y="758"/>
      <point x="80" y="609"/>
      <point x="80" y="380" type="curve" smooth="yes"/>
      <point x="80" y="140"/>
      <point x="228" y="-20"/>
    </contour>
    <contour>
      <point x="550" y="-16" type="curve" smooth="yes"/>
      <point x="352" y="-16"/>
      <point x="280" y="192"/>
      <point x="280" y="380" type="curve" smooth="yes"/>
      <point x="280" y="568"/>
      <point x="352" y="768"/>
      <point x="550" y="768" type="curve" smooth="yes"/>
      <point x="748" y="768"/>
      <point x="820" y="568"/>
      <point x="820" y="380" type="curve" smooth="yes"/>
      <point x="820" y="192"/>
      <point x="748" y="-16"/>
    </contour>
    <contour>
      <point x="550" y="774" type="curve" smooth="yes"/>
      <point x="372" y="774"/>
      <point x="320" y="952"/>
      <point x="320" y="1120" type="curve" smooth="yes"/>
      <point x="320" y="1288"/>
      <point x="372" y="1516"/>
      <point x="550" y="1516" type="curve" smooth="yes"/>
      <point x="728" y="1516"/>
      <point x="780" y="1288"/>
      <point x="780" y="1120" type="curve" smooth="yes"/>
      <point x="780" y="952"/>
      <point x="728" y="774"/>
    </contour>
  </outline>
</glyph>
<glyph name="nine" format="2">
  <advance width="1119"/>
  <unicode hex="0039"/>
  <outline>
    <contour>
      <point x="210" y="-20" type="line"/>
      <point x="656" y="-20"/>
      <point x="1020" y="394"/>
      <point x="1020" y="880" type="curve" smooth="yes"/>
      <point x="1020" y="1300"/>
      <point x="834" y="1520"/>
      <point x="532" y="1520" type="curve" smooth="yes"/>
      <point x="230" y="1520"/>
      <point x="60" y="1300"/>
      <point x="60" y="1000" type="curve" smooth="yes"/>
      <point x="60" y="660"/>
      <point x="296" y="520"/>
      <point x="498" y="520" type="curve" smooth="yes"/>
      <point x="760" y="520"/>
      <point x="824" y="706"/>
      <point x="824" y="940" type="curve"/>
      <point x="820" y="940" type="line"/>
      <point x="820" y="720"/>
      <point x="750" y="534"/>
      <point x="542" y="534" type="curve" smooth="yes"/>
      <point x="364" y="534"/>
      <point x="260" y="732"/>
      <point x="260" y="1000" type="curve" smooth="yes"/>
      <point x="260" y="1228"/>
      <point x="308" y="1516"/>
      <point x="526" y="1516" type="curve" smooth="yes"/>
      <point x="744" y="1516"/>
      <point x="820" y="1208"/>
      <point x="820" y="940" type="curve"/>
      <point x="820" y="850" type="line"/>
      <point x="820" y="386"/>
      <point x="558" y="-16"/>
      <point x="210" y="-16" type="curve"/>
    </contour>
  </outline>
</glyph>
<glyph name="A" format="2">
  <advance width="1473"/>
  <unicode hex="0041"/>
  <anchor x="686" y="0" name="bottom"/>
  <anchor x="1186" y="0" name="ogonek"/>
  <anchor x="764" y="1500" name="top"/>
  <outline>
    <contour>
      <point x="401" y="486" type="line"/>
      <point x="1037" y="486" type="line"/>
      <point x="1037" y="490" type="line"/>
      <point x="401" y="490" type="line"/>
    </contour>
    <contour>
      <point x="766" y="1530" type="line"/>
      <point x="762" y="1530" type="line"/>
      <point x="230" y="4" type="line"/>
      <point x="37" y="4" type="line"/>
      <point x="37" y="0" type="line"/>
      <point x="477" y="0" type="line"/>
      <point x="477" y="4" type="line"/>
      <point x="234" y="4" type="line"/>
      <point x="672" y="1256" type="line"/>
      <point x="1076" y="4" type="line"/>
      <point x="857" y="4" type="line"/>
      <point x="857" y="0" type="line"/>
      <point x="1437" y="0" type="line"/>
      <point x="1437" y="4" type="line"/>
      <point x="1295" y="4" type="line"/>
    </contour>
  </outline>
</glyph>
<glyph name="B" format="2">
  <advance width="1259"/>
  <unicode hex="0042"/>
  <anchor x="566" y="0" name="bottom"/>
  <anchor x="494" y="1500" name="top"/>
  <outline>
    <contour>
      <point x="37" y="0" type="line"/>
      <point x="657" y="0" type="line" smooth="yes"/>
      <point x="979" y="0"/>
      <point x="1176" y="120"/>
      <point x="1176" y="420" type="curve" smooth="yes"/>
      <point x="1176" y="680"/>
      <point x="939" y="772"/>
      <point x="657" y="772" type="curve" smooth="yes"/>
      <point x="397" y="772" type="line"/>
      <point x="397" y="768" type="line"/>
      <point x="636" y="768" type="line" smooth="yes"/>
      <point x="808" y="768"/>
      <point x="957" y="658"/>
      <point x="957" y="420" type="curve" smooth="yes"/>
      <point x="957" y="182"/>
      <point x="808" y="4"/>
      <point x="636" y="4" type="curve" smooth="yes"/>
      <point x="37" y="4" type="line"/>
    </contour>
    <contour>
      <point x="216" y="2" type="line"/>
      <point x="407" y="2" type="line"/>
      <point x="407" y="1498" type="line"/>
      <point x="216" y="1498" type="line"/>
    </contour>
    <contour>
      <point x="397" y="768" type="line"/>
      <point x="617" y="768" type="line" smooth="yes"/>
      <point x="939" y="768"/>
      <point x="1117" y="870"/>
      <point x="1117" y="1130" type="curve" smooth="yes"/>
      <point x="1117" y="1390"/>
      <point x="919" y="1500"/>
      <point x="617" y="1500" type="curve" smooth="yes"/>
      <point x="37" y="1500" type="line"/>
      <point x="37" y="1496" type="line"/>
      <point x="617" y="1496" type="line" smooth="yes"/>
      <point x="769" y="1496"/>
      <point x="917" y="1348"/>
      <point x="917" y="1110" type="curve" smooth="yes"/>
      <point x="917" y="872"/>
      <point x="769" y="772"/>
      <point x="617" y="772" type="curve" smooth="yes"/>
      <point x="397" y="772" type="line"/>
    </contour>
  </outline>
</glyph>
<glyph name="C" format="2">
  <advance width="1335"/>
  <unicode hex="0043"/>
  <anchor x="786" y="-10" name="bottom"/>
  <anchor x="766" y="1500" name="top"/>
  <outline>
    <contour>
      <point x="763" y="-20" type="curve" smooth="yes"/>
      <point x="919" y="-20"/>
      <point x="1051" y="35"/>
      <point x="1138" y="125" type="curve"/>
      <point x="1249" y="0" type="line"/>
      <point x="1253" y="0" type="line"/>
      <point x="1253" y="410" type="line"/>
      <point x="1249" y="410" type="line"/>
      <point x="1249" y="186"/>
      <point x="1061" y="-10"/>
      <point x="783" y="-10" type="curve" smooth="yes"/>
      <point x="435" y="-10"/>
      <point x="313" y="386"/>
      <point x="313" y="750" type="curve" smooth="yes"/>
      <point x="313" y="1114"/>
      <point x="435" y="1510"/>
      <point x="783" y="1510" type="curve" smooth="yes"/>
      <point x="1011" y="1510"/>
      <point x="1229" y="1334"/>
      <point x="1229" y="1090" type="curve"/>
      <point x="1233" y="1090" type="line"/>
      <point x="1233" y="1500" type="line"/>
      <point x="1229" y="1500" type="line"/>
      <point x="1108" y="1384" type="line"/>
      <point x="1021" y="1469"/>
      <point x="898" y="1520"/>
      <point x="763" y="1520" type="curve" smooth="yes"/>
      <point x="357" y="1520"/>
      <point x="83" y="1196"/>
      <point x="83" y="750" type="curve" smooth="yes"/>
      <point x="83" y="304"/>
      <point x="357" y="-20"/>
    </contour>
  </outline>
</glyph>
<glyph name="G" format="2">
  <advance width="1422"/>
  <unicode hex="0047"/>
  <anchor x="737" y="0" name="bottom"/>
  <anchor x="736" y="0" name="cedilla"/>
  <anchor x="766" y="1500" name="top"/>
  <outline>
    <contour>
      <point x="863" y="572" type="line"/>
      <point x="863" y="568" type="line"/>
      <point x="1073" y="568" type="line"/>
      <point x="1073" y="250" type="line"/>
      <point x="1053" y="206"/>
      <point x="981" y="-16"/>
      <point x="733" y="-16" type="curve" smooth="yes"/>
      <point x="395" y="-16"/>
      <point x="313" y="386"/>
      <point x="313" y="750" type="curve" smooth="yes"/>
      <point x="313" y="1114"/>
      <point x="435" y="1510"/>
      <point x="783" y="1510" type="curve" smooth="yes"/>
      <point x="1013" y="1510"/>
      <point x="1229" y="1338"/>
      <point x="1229" y="1090" type="curve"/>
      <point x="1233" y="1090" type="line"/>
      <point x="1233" y="1500" type="line"/>
      <point x="1229" y="1500" type="line"/>
      <point x="1107" y="1385" type="line"/>
      <point x="1020" y="1469"/>
      <point x="897" y="1520"/>
      <point x="763" y="1520" type="curve" smooth="yes"/>
      <point x="357" y="1520"/>
      <point x="83" y="1196"/>
      <point x="83" y="750" type="curve" smooth="yes"/>
      <point x="83" y="304"/>
      <point x="317" y="-20"/>
      <point x="733" y="-20" type="curve" smooth="yes"/>
      <point x="1059" y="-20"/>
      <point x="1223" y="204"/>
      <point x="1283" y="330" type="curve"/>
      <point x="1283" y="568" type="line"/>
      <point x="1403" y="568" type="line"/>
      <point x="1403" y="572" type="line"/>
    </contour>
  </outline>
</glyph>
<glyph name="I" format="2">
  <advance width="723"/>
  <unicode hex="0049"/>
  <anchor x="349" y="0" name="bottom"/>
  <anchor x="381" y="0" name="ogonek"/>
  <anchor x="353" y="1500" name="top"/>
  <outline>
    <contour>
      <point x="37" y="0" type="line"/>
      <point x="687" y="0" type="line"/>
      <point x="687" y="4" type="line"/>
      <point x="447" y="4" type="line"/>
      <point x="447" y="1496" type="line"/>
      <point x="687" y="1496" type="line"/>
      <point x="687" y="1500" type="line"/>
      <point x="37" y="1500" type="line"/>
      <point x="37" y="1496" type="line"/>
      <point x="256" y="1496" type="line"/>
      <point x="256" y="4" type="line"/>
      <point x="37" y="4" type="line"/>
    </contour>
  </outline>
</glyph>
<glyph name="S" format="2">
  <advance width="1116"/>
  <unicode hex="0053"/>
  <anchor x="608" y="-23" name="bottom"/>
  <anchor x="536" y="1500" name="top"/>
  <outline>
    <contour>
      <point x="578" y="-30" type="curve" smooth="yes"/>
      <point x="860" y="-30"/>
      <point x="1038" y="140"/>
      <point x="1038" y="400" type="curve" smooth="yes"/>
      <point x="1038" y="960"/>
      <point x="248" y="880"/>
      <point x="248" y="1250" type="curve" smooth="yes"/>
      <point x="248" y="1408"/>
      <point x="350" y="1512"/>
      <point x="542" y="1512" type="curve" smooth="yes"/>
      <point x="756" y="1512"/>
      <point x="914" y="1388"/>
      <point x="954" y="1110" type="curve"/>
      <point x="958" y="1110" type="line"/>
      <point x="958" y="1520" type="line"/>
      <point x="954" y="1520" type="line"/>
      <point x="846" y="1388" type="line"/>
      <point x="768" y="1478"/>
      <point x="658" y="1520"/>
      <point x="522" y="1520" type="curve" smooth="yes"/>
      <point x="300" y="1520"/>
      <point x="108" y="1370"/>
      <point x="108" y="1150" type="curve" smooth="yes"/>
      <point x="108" y="630"/>
      <point x="918" y="720"/>
      <point x="918" y="310" type="curve" smooth="yes"/>
      <point x="918" y="92"/>
      <point x="774" y="-24"/>
      <point x="562" y="-24" type="curve" smooth="yes"/>
      <point x="272" y="-24"/>
      <point x="138" y="152"/>
      <point x="92" y="390" type="curve"/>
      <point x="88" y="390" type="line"/>
      <point x="88" y="-20" type="line"/>
      <point x="92" y="-20" type="line"/>
      <point x="201" y="126" type="line"/>
      <point x="279" y="30"/>
      <point x="398" y="-30"/>
    </contour>
  </outline>
</glyph>
<glyph name="V" format="2">
  <advance width="1472"/>
  <unicode hex="0056"/>
  <anchor x="711" y="0" name="bottom"/>
  <anchor x="775" y="1500" name="top"/>
  <outline>
    <contour>
      <point x="1436" y="1500" type="line"/>
      <point x="997" y="1500" type="line"/>
      <point x="997" y="1496" type="line"/>
      <point x="1257" y="1496" type="line"/>
      <point x="804" y="244" type="line"/>
      <point x="397" y="1496" type="line"/>
      <point x="617" y="1496" type="line"/>
      <point x="617" y="1500" type="line"/>
      <point x="37" y="1500" type="line"/>
      <point x="37" y="1496" type="line"/>
      <point x="177" y="1496" type="line"/>
      <point x="707" y="-30" type="line"/>
      <point x="710" y="-30" type="line"/>
      <point x="1263" y="1496" type="line"/>
      <point x="1436" y="1496" type="line"/>
    </contour>
  </outline>
</glyph>
<glyph name="W" format="2">
  <advance width="1938"/>
  <unicode hex="0057"/>
  <anchor x="956" y="0" name="bottom"/>
  <anchor x="1026" y="1500" name="top"/>
  <outline>
    <contour>
      <point x="669" y="-20" type="line"/>
      <point x="673" y="-20" type="line"/>
      <point x="981" y="794" type="line"/>
      <point x="978" y="803" type="line"/>
      <point x="779" y="278" type="line"/>
      <point x="398" y="1496" type="line"/>
      <point x="721" y="1496" type="line"/>
      <point x="1191" y="-20" type="line"/>
      <point x="1195" y="-20" type="line"/>
      <point x="1746" y="1496" type="line"/>
      <point x="1919" y="1496" type="line"/>
      <point x="1919" y="1500" type="line"/>
      <point x="1520" y="1500" type="line"/>
      <point x="1520" y="1496" type="line"/>
      <point x="1740" y="1496" type="line"/>
      <point x="1297" y="278" type="line"/>
      <point x="920" y="1496" type="line"/>
      <point x="1419" y="1496" type="line"/>
      <point x="1419" y="1500" type="line"/>
      <point x="20" y="1500" type="line"/>
      <point x="20" y="1496" type="line"/>
      <point x="198" y="1496" type="line"/>
    </contour>
    <contour>
      <point x="1081" y="950" type="line"/>
      <point x="1266" y="1498" type="line"/>
      <point x="1259" y="1498" type="line"/>
      <point x="1077" y="956" type="line"/>
    </contour>
  </outline>
</glyph>
<glyph name="X" format="2">
  <advance width="1458"/>
  <unicode hex="0058"/>
  <anchor x="686" y="0" name="bottom"/>
  <anchor x="766" y="1500" name="top"/>
  <outline>
    <contour>
      <point x="879" y="0" type="line"/>
      <point x="1439" y="0" type="line"/>
      <point x="1439" y="4" type="line"/>
      <point x="1310" y="4" type="line"/>
      <point x="443" y="1496" type="line"/>
      <point x="649" y="1496" type="line"/>
      <point x="649" y="1500" type="line"/>
      <point x="89" y="1500" type="line"/>
      <point x="89" y="1496" type="line"/>
      <point x="211" y="1496" type="line"/>
      <point x="1069" y="4" type="line"/>
      <point x="879" y="4" type="line"/>
    </contour>
    <contour>
      <point x="20" y="0" type="line"/>
      <point x="499" y="0" type="line"/>
      <point x="499" y="4" type="line"/>
      <point x="249" y="4" type="line"/>
      <point x="759" y="834" type="line"/>
      <point x="753" y="834" type="line"/>
      <point x="243" y="4" type="line"/>
      <point x="20" y="4" type="line"/>
    </contour>
    <contour>
      <point x="731" y="754" type="line"/>
      <point x="737" y="754" type="line"/>
      <point x="1161" y="1496" type="line"/>
      <point x="1329" y="1496" type="line"/>
      <point x="1329" y="1500" type="line"/>
      <point x="890" y="1500" type="line"/>
      <point x="890" y="1496" type="line"/>
      <point x="1155" y="1496" type="line"/>
    </contour>
  </outline>
</glyph>
<glyph name="Y" format="2">
  <advance width="1409"/>
  <unicode hex="0059"/>
  <anchor x="729" y="0" name="bottom"/>
  <anchor x="766" y="1500" name="top"/>
  <outline>
    <contour>
      <point x="449" y="0" type="line"/>
      <point x="1020" y="0" type="line"/>
      <point x="1020" y="4" type="line"/>
      <point x="819" y="4" type="line"/>
      <point x="819" y="766" type="line"/>
      <point x="1211" y="1496" type="line"/>
      <point x="1390" y="1496" type="line"/>
      <point x="1390" y="1500" type="line"/>
      <point x="970" y="1500" type="line"/>
      <point x="970" y="1496" type="line"/>
      <point x="1205" y="1496" type="line"/>
      <point x="815" y="770" type="line"/>
      <point x="381" y="1496" type="line"/>
      <point x="600" y="1496" type="line"/>
      <point x="600" y="1500" type="line"/>
      <point x="20" y="1500" type="line"/>
      <point x="20" y="1496" type="line"/>
      <point x="161" y="1496" type="line"/>
      <point x="629" y="720" type="line"/>
      <point x="629" y="4" type="line"/>
      <point x="449" y="4" type="line"/>
    </contour>
  </outline>
</glyph>
<glyph name="b" format="2">
  <advance width="1194"/>
  <unicode hex="0062"/>
  <anchor x="606" y="0" name="bottom"/>
  <anchor x="736" y="920" name="top"/>
  <outline>
    <contour>
      <point x="677" y="-20" type="curve" smooth="yes"/>
      <point x="895" y="-20"/>
      <point x="1101" y="160"/>
      <point x="1101" y="460" type="curve" smooth="yes"/>
      <point x="1101" y="760"/>
      <point x="895" y="938"/>
      <point x="677" y="938" type="curve" smooth="yes"/>
      <point x="497" y="938"/>
      <point x="386" y="800"/>
      <point x="364" y="554" type="curve"/>
      <point x="364" y="1500" type="line"/>
      <point x="64" y="1500" type="line"/>
      <point x="64" y="1496" type="line"/>
      <point x="185" y="1496" type="line"/>
      <point x="185" y="4" type="line"/>
      <point x="64" y="4" type="line"/>
      <point x="64" y="0" type="line"/>
      <point x="364" y="0" type="line"/>
      <point x="364" y="366" type="line"/>
      <point x="386" y="120"/>
      <point x="497" y="-20"/>
    </contour>
    <contour>
      <point x="646" y="-6" type="curve" smooth="yes"/>
      <point x="490" y="-6"/>
      <point x="364" y="152"/>
      <point x="364" y="460" type="curve" smooth="yes"/>
      <point x="364" y="768"/>
      <point x="490" y="924"/>
      <point x="646" y="924" type="curve" smooth="yes"/>
      <point x="814" y="924"/>
      <point x="891" y="728"/>
      <point x="891" y="460" type="curve" smooth="yes"/>
      <point x="891" y="192"/>
      <point x="814" y="-6"/>
    </contour>
  </outline>
</glyph>
<glyph name="f" format="2">
  <advance width="769"/>
  <unicode hex="0066"/>
  <anchor x="329" y="0" name="bottom"/>
  <anchor x="619" y="1497" name="top"/>
  <outline>
    <contour>
      <point x="215" y="0" type="line"/>
      <point x="395" y="0" type="line"/>
      <point x="395" y="1080" type="line" smooth="yes"/>
      <point x="395" y="1334"/>
      <point x="449" y="1516"/>
      <point x="609" y="1516" type="curve" smooth="yes"/>
      <point x="759" y="1516"/>
      <point x="851" y="1424"/>
      <point x="851" y="1322" type="curve"/>
      <point x="853" y="1322" type="line"/>
      <point x="853" y="1382"/>
      <point x="794" y="1418"/>
      <point x="740" y="1418" type="curve" smooth="yes"/>
      <point x="690" y="1418"/>
      <point x="629" y="1377"/>
      <point x="629" y="1307" type="curve" smooth="yes"/>
      <point x="629" y="1227"/>
      <point x="690" y="1198"/>
      <point x="740" y="1198" type="curve" smooth="yes"/>
      <point x="801" y="1198"/>
      <point x="855" y="1240"/>
      <point x="855" y="1322" type="curve" smooth="yes"/>
      <point x="855" y="1416"/>
      <point x="771" y="1520"/>
      <point x="609" y="1520" type="curve" smooth="yes"/>
      <point x="349" y="1520"/>
      <point x="215" y="1285"/>
      <point x="215" y="1023" type="curve" smooth="yes"/>
    </contour>
    <contour>
      <point x="55" y="0" type="line"/>
      <point x="615" y="0" type="line"/>
      <point x="615" y="4" type="line"/>
      <point x="55" y="4" type="line"/>
    </contour>
    <contour>
      <point x="55" y="916" type="line"/>
      <point x="655" y="916" type="line"/>
      <point x="655" y="920" type="line"/>
      <point x="55" y="920" type="line"/>
    </contour>
  </outline>
</glyph>
<glyph name="h" format="2">
  <advance width="1158"/>
  <unicode hex="0068"/>
  <anchor x="588" y="0" name="bottom"/>
  <anchor x="621" y="1420" name="top"/>
  <outline>
    <contour>
      <point x="64" y="0" type="line"/>
      <point x="484" y="0" type="line"/>
      <point x="484" y="4" type="line"/>
      <point x="364" y="4" type="line"/>
      <point x="364" y="1500" type="line"/>
      <point x="64" y="1500" type="line"/>
      <point x="64" y="1496" type="line"/>
      <point x="185" y="1496" type="line"/>
      <point x="185" y="4" type="line"/>
      <point x="64" y="4" type="line"/>
    </contour>
    <contour>
      <point x="675" y="0" type="line"/>
      <point x="1095" y="0" type="line"/>
      <point x="1095" y="4" type="line"/>
      <point x="975" y="4" type="line"/>
      <point x="975" y="638" type="line" smooth="yes"/>
      <point x="975" y="812"/>
      <point x="924" y="940"/>
      <point x="690" y="940" type="curve" smooth="yes"/>
      <point x="374" y="940"/>
      <point x="360" y="626"/>
      <point x="360" y="436" type="curve"/>
      <point x="364" y="446" type="line"/>
      <point x="364" y="624"/>
      <point x="387" y="932"/>
      <point x="673" y="932" type="curve" smooth="yes"/>
      <point x="785" y="932"/>
      <point x="794" y="785"/>
      <point x="794" y="616" type="curve" smooth="yes"/>
      <point x="794" y="4" type="line"/>
      <point x="675" y="4" type="line"/>
    </contour>
  </outline>
</glyph>
<glyph name="l" format="2">
  <advance width="627"/>
  <unicode hex="006C"/>
  <anchor x="334" y="0" name="bottom"/>
  <anchor x="336" y="0" name="cedilla"/>
  <anchor x="312" y="800" name="center"/>
  <anchor x="328" y="1500" name="top"/>
  <anchor x="513" y="920" name="topright"/>
  <outline>
    <contour>
      <point x="404" y="1500" type="line"/>
      <point x="64" y="1500" type="line"/>
      <point x="64" y="1496" type="line"/>
      <point x="225" y="1496" type="line"/>
      <point x="225" y="4" type="line"/>
      <point x="64" y="4" type="line"/>
      <point x="64" y="0" type="line"/>
      <point x="564" y="0" type="line"/>
      <point x="564" y="4" type="line"/>
      <point x="404" y="4" type="line"/>
    </contour>
  </outline>
</glyph>
<glyph name="r" format="2">
  <advance width="847"/>
  <unicode hex="0072"/>
  <anchor x="281" y="0" name="bottom"/>
  <anchor x="281" y="0" name="cedilla"/>
  <anchor x="496" y="920" name="top"/>
  <outline>
    <contour>
      <point x="360" y="446" type="curve"/>
      <point x="364" y="446" type="line"/>
      <point x="364" y="687"/>
      <point x="407.566" y="936"/>
      <point x="619" y="936" type="curve" smooth="yes"/>
      <point x="728" y="936"/>
      <point x="796" y="862"/>
      <point x="796" y="777" type="curve"/>
      <point x="799" y="777" type="line"/>
      <point x="799" y="834"/>
      <point x="749" y="882"/>
      <point x="683" y="882" type="curve" smooth="yes"/>
      <point x="625.572" y="882"/>
      <point x="564" y="842"/>
      <point x="564" y="763" type="curve" smooth="yes"/>
      <point x="564" y="703"/>
      <point x="608" y="656"/>
      <point x="684" y="656" type="curve" smooth="yes"/>
      <point x="757" y="656"/>
      <point x="800" y="709"/>
      <point x="800" y="777" type="curve" smooth="yes"/>
      <point x="800" y="865"/>
      <point x="730" y="940"/>
      <point x="619" y="940" type="curve" smooth="yes"/>
      <point x="407" y="940"/>
      <point x="360" y="696"/>
    </contour>
    <contour>
      <point x="364" y="920" type="line"/>
      <point x="64" y="920" type="line"/>
      <point x="64" y="916" type="line"/>
      <point x="185" y="916" type="line"/>
      <point x="185" y="4" type="line"/>
      <point x="64" y="4" type="line"/>
      <point x="64" y="0" type="line"/>
      <point x="484" y="0" type="line"/>
      <point x="484" y="4" type="line"/>
      <point x="364" y="4" type="line"/>
    </contour>
  </outline>
</glyph>
<glyph name="s" format="2">
  <advance width="888"/>
  <unicode hex="0073"/>
  <anchor x="446" y="-17" name="bottom"/>
  <anchor x="446" y="920" name="top"/>
  <outline>
    <contour>
      <point x="104" y="-20" type="line"/>
      <point x="108" y="-20" type="line"/>
      <point x="203" y="73" type="line"/>
      <point x="269" y="16"/>
      <point x="362" y="-20"/>
      <point x="463" y="-20" type="curve" smooth="yes"/>
      <point x="657" y="-20"/>
      <point x="805" y="106"/>
      <point x="805" y="284" type="curve" smooth="yes"/>
      <point x="805" y="640"/>
      <point x="204" y="542"/>
      <point x="204" y="782" type="curve" smooth="yes"/>
      <point x="204" y="880"/>
      <point x="294" y="934"/>
      <point x="410" y="934" type="curve" smooth="yes"/>
      <point x="598" y="934"/>
      <point x="734" y="790"/>
      <point x="734" y="660" type="curve"/>
      <point x="738" y="660" type="line"/>
      <point x="738" y="940" type="line"/>
      <point x="734" y="940" type="line"/>
      <point x="644" y="851" type="line"/>
      <point x="586" y="903"/>
      <point x="505" y="938"/>
      <point x="408" y="938" type="curve" smooth="yes"/>
      <point x="218" y="938"/>
      <point x="128" y="798"/>
      <point x="128" y="670" type="curve" smooth="yes"/>
      <point x="128" y="298"/>
      <point x="698" y="430"/>
      <point x="698" y="176" type="curve" smooth="yes"/>
      <point x="698" y="34"/>
      <point x="572" y="-14"/>
      <point x="452" y="-14" type="curve" smooth="yes"/>
      <point x="278" y="-14"/>
      <point x="112" y="110"/>
      <point x="108" y="260" type="curve"/>
      <point x="104" y="260" type="line"/>
    </contour>
  </outline>
</glyph>
<glyph name="u" format="2">
  <advance width="1158"/>
  <unicode hex="0075"/>
  <anchor x="566" y="0" name="bottom"/>
  <anchor x="883" y="0" name="ogonek"/>
  <anchor x="526" y="920" name="top"/>
  <outline>
    <contour>
      <point x="469" y="-20" type="curve" smooth="yes"/>
      <point x="785" y="-20"/>
      <point x="799" y="294"/>
      <point x="799" y="484" type="curve"/>
      <point x="794" y="474" type="line"/>
      <point x="794" y="296"/>
      <point x="772" y="-12"/>
      <point x="486" y="-12" type="curve" smooth="yes"/>
      <point x="374" y="-12"/>
      <point x="364" y="136"/>
      <point x="364" y="304" type="curve" smooth="yes"/>
      <point x="364" y="920" type="line"/>
      <point x="64" y="920" type="line"/>
      <point x="64" y="916" type="line"/>
      <point x="185" y="916" type="line"/>
      <point x="185" y="282" type="line" smooth="yes"/>
      <point x="185" y="108"/>
      <point x="235" y="-20"/>
    </contour>
    <contour>
      <point x="794" y="0" type="line"/>
      <point x="1095" y="0" type="line"/>
      <point x="1095" y="4" type="line"/>
      <point x="975" y="4" type="line"/>
      <point x="975" y="920" type="line"/>
      <point x="654" y="920" type="line"/>
      <point x="654" y="916" type="line"/>
      <point x="794" y="916" type="line"/>
    </contour>
  </outline>
</glyph>
<glyph name="w" format="2">
  <advance width="1538"/>
  <unicode hex="0077"/>
  <anchor x="736" y="0" name="bottom"/>
  <anchor x="736" y="920" name="top"/>
  <outline>
    <contour>
      <point x="1494" y="920" type="line"/>
      <point x="1106" y="920" type="line"/>
      <point x="1106" y="916" type="line"/>
      <point x="1304" y="916" type="line"/>
      <point x="1082" y="254" type="line"/>
      <point x="864" y="940" type="line"/>
      <point x="860" y="940" type="line"/>
      <point x="544" y="218" type="line"/>
      <point x="323" y="916" type="line"/>
      <point x="486" y="916" type="line"/>
      <point x="486" y="920" type="line"/>
      <point x="24" y="920" type="line"/>
      <point x="24" y="916" type="line"/>
      <point x="136" y="916" type="line"/>
      <point x="440" y="-20" type="line"/>
      <point x="444" y="-20" type="line"/>
      <point x="746" y="668" type="line"/>
      <point x="992" y="-20" type="line"/>
      <point x="996" y="-20" type="line"/>
      <point x="1310" y="916" type="line"/>
      <point x="1494" y="916" type="line"/>
    </contour>
  </outline>
</glyph>
<glyph name="x" format="2">
  <advance width="1116"/>
  <unicode hex="0078"/>
  <anchor x="526" y="0" name="bottom"/>
  <anchor x="606" y="920" name="top"/>
  <outline>
    <contour>
      <point x="671" y="0" type="line"/>
      <point x="1072" y="0" type="line"/>
      <point x="1072" y="4" type="line"/>
      <point x="999" y="4" type="line"/>
      <point x="377" y="916" type="line"/>
      <point x="517" y="916" type="line"/>
      <point x="517" y="920" type="line"/>
      <point x="64" y="920" type="line"/>
      <point x="64" y="916" type="line"/>
      <point x="157" y="916" type="line"/>
      <point x="779" y="4" type="line"/>
      <point x="671" y="4" type="line"/>
    </contour>
    <contour>
      <point x="44" y="0" type="line"/>
      <point x="383" y="0" type="line"/>
      <point x="383" y="4" type="line"/>
      <point x="184" y="4" type="line"/>
      <point x="890" y="916" type="line"/>
      <point x="1042" y="916" type="line"/>
      <point x="1042" y="920" type="line"/>
      <point x="715" y="920" type="line"/>
      <point x="715" y="916" type="line"/>
      <point x="884" y="916" type="line"/>
      <point x="178" y="4" type="line"/>
      <point x="44" y="4" type="line"/>
    </contour>
  </outline>
</glyph>
<glyph name="braceleft" format="2">
  <advance width="543"/>
  <unicode hex="007B"/>
  <outline>
    <contour>
      <point x="484" y="1560" type="line"/>
      <point x="194" y="1560"/>
      <point x="110" y="1460"/>
      <point x="110" y="1282" type="curve" smooth="yes"/>
      <point x="110" y="1008"/>
      <point x="230" y="918"/>
      <point x="230" y="792" type="curve" smooth="yes"/>
      <point x="230" y="710"/>
      <point x="170" y="654"/>
      <point x="110" y="634" type="curve"/>
      <point x="110" y="628" type="line"/>
      <point x="170" y="608"/>
      <point x="230" y="552"/>
      <point x="230" y="470" type="curve" smooth="yes"/>
      <point x="230" y="344"/>
      <point x="110" y="254"/>
      <point x="110" y="-20" type="curve" smooth="yes"/>
      <point x="110" y="-198"/>
      <point x="194" y="-300"/>
      <point x="484" y="-300" type="curve"/>
      <point x="484" y="-296" type="line"/>
      <point x="360" y="-296"/>
      <point x="296" y="-158"/>
      <point x="296" y="-32" type="curve" smooth="yes"/>
      <point x="296" y="120"/>
      <point x="364" y="200"/>
      <point x="364" y="400" type="curve" smooth="yes"/>
      <point x="364" y="565"/>
      <point x="260" y="592"/>
      <point x="114" y="631" type="curve"/>
      <point x="260" y="670"/>
      <point x="364" y="697"/>
      <point x="364" y="862" type="curve" smooth="yes"/>
      <point x="364" y="1062"/>
      <point x="296" y="1142"/>
      <point x="296" y="1294" type="curve" smooth="yes"/>
      <point x="296" y="1420"/>
      <point x="360" y="1556"/>
      <point x="484" y="1556" type="curve"/>
    </contour>
  </outline>
</glyph>
<glyph name="yen" format="2">
  <advance width="1409"/>
  <unicode hex="00A5"/>
  <anchor x="729" y="0" name="bottom"/>
  <anchor x="766" y="1500" name="top"/>
  <outline>
    <contour>
      <point x="629" y="0" type="line"/>
      <point x="819" y="0" type="line"/>
      <point x="819" y="766" type="line"/>
      <point x="1211" y="1496" type="line"/>
      <point x="1205" y="1496" type="line"/>
      <point x="815" y="770" type="line"/>
      <point x="379" y="1500" type="line"/>
      <point x="159" y="1500" type="line"/>
      <point x="629" y="720" type="line"/>
    </contour>
    <contour>
      <point x="449" y="0" type="line"/>
      <point x="1020" y="0" type="line"/>
      <point x="1020" y="4" type="line"/>
      <point x="449" y="4" type="line"/>
    </contour>
    <contour>
      <point x="333" y="339" type="line"/>
      <point x="1213" y="339" type="line"/>
      <point x="1213" y="343" type="line"/>
      <point x="333" y="343" type="line"/>
    </contour>
    <contour>
      <point x="333" y="640" type="line"/>
      <point x="1213" y="640" type="line"/>
      <point x="1213" y="644" type="line"/>
      <point x="333" y="644" type="line"/>
    </contour>
    <contour>
      <point x="20" y="1496" type="line"/>
      <point x="600" y="1496" type="line"/>
      <point x="600" y="1500" type="line"/>
      <point x="20" y="1500" type="line"/>
    </contour>
    <contour>
      <point x="970" y="1496" type="line"/>
      <point x="1390" y="1496" type="line"/>
      <point x="1390" y="1500" type="line"/>
      <point x="970" y="1500" type="line"/>
    </contour>
  </outline>
</glyph>
<glyph name="brokenbar" format="2">
  <advance width="439"/>
  <unicode hex="00A6"/>
  <outline>
    <contour>
      <point x="218" y="-499.94" type="line"/>
      <point x="222" y="-499.94" type="line"/>
      <point x="222" y="332.053" type="line"/>
      <point x="218" y="332.053" type="line"/>
    </contour>
    <contour>
      <point x="218" y="817.905" type="line"/>
      <point x="222" y="817.905" type="line"/>
      <point x="222" y="1559.896" type="line"/>
      <point x="218" y="1559.896" type="line"/>
    </contour>
  </outline>
</glyph>
<glyph name="section" format="2">
  <advance width="893"/>
  <unicode hex="00A7"/>
  <outline>
    <contour>
      <point x="228" y="1318" type="curve" smooth="yes"/>
      <point x="228" y="1412"/>
      <point x="327" y="1516"/>
      <point x="453" y="1516" type="curve" smooth="yes"/>
      <point x="620" y="1516"/>
      <point x="789" y="1439"/>
      <point x="797" y="1239" type="curve"/>
      <point x="785" y="1273"/>
      <point x="734" y="1302"/>
      <point x="687" y="1302" type="curve" smooth="yes"/>
      <point x="628" y="1302"/>
      <point x="573" y="1255"/>
      <point x="573" y="1191" type="curve" smooth="yes"/>
      <point x="573" y="1119"/>
      <point x="620" y="1080"/>
      <point x="681" y="1080" type="curve" smooth="yes"/>
      <point x="751" y="1080"/>
      <point x="801" y="1143"/>
      <point x="801" y="1225" type="curve" smooth="yes"/>
      <point x="801" y="1437"/>
      <point x="629" y="1520"/>
      <point x="453" y="1520" type="curve" smooth="yes"/>
      <point x="303" y="1520"/>
      <point x="123" y="1424"/>
      <point x="123" y="1216" type="curve" smooth="yes"/>
      <point x="123" y="853"/>
      <point x="721" y="928"/>
      <point x="721" y="666" type="curve" smooth="yes"/>
      <point x="721" y="605"/>
      <point x="693" y="562"/>
      <point x="615" y="508" type="curve"/>
      <point x="619" y="508" type="line"/>
      <point x="726" y="580"/>
      <point x="833" y="646"/>
      <point x="833" y="770" type="curve" smooth="yes"/>
      <point x="833" y="1077"/>
      <point x="228" y="1056"/>
    </contour>
    <contour>
      <point x="167" y="834" type="curve" smooth="yes"/>
      <point x="167" y="914"/>
      <point x="235" y="977"/>
      <point x="265" y="1000" type="curve"/>
      <point x="261" y="1000" type="line"/>
      <point x="193" y="948"/>
      <point x="75" y="855"/>
      <point x="75" y="710" type="curve" smooth="yes"/>
      <point x="75" y="424"/>
      <point x="677" y="455"/>
      <point x="677" y="193" type="curve" smooth="yes"/>
      <point x="677" y="99"/>
      <point x="604" y="-16"/>
      <point x="427" y="-16" type="curve" smooth="yes"/>
      <point x="256" y="-16"/>
      <point x="74" y="51"/>
      <point x="64" y="265" type="curve"/>
      <point x="76" y="226"/>
      <point x="125" y="204"/>
      <point x="173" y="204" type="curve" smooth="yes"/>
      <point x="232" y="204"/>
      <point x="287" y="250"/>
      <point x="287" y="314" type="curve" smooth="yes"/>
      <point x="287" y="386"/>
      <point x="240" y="426"/>
      <point x="179" y="426" type="curve" smooth="yes"/>
      <point x="109" y="426"/>
      <point x="60" y="364"/>
      <point x="60" y="282" type="curve" smooth="yes"/>
      <point x="60" y="50"/>
      <point x="251" y="-20"/>
      <point x="427" y="-20" type="curve" smooth="yes"/>
      <point x="657" y="-20"/>
      <point x="817" y="116"/>
      <point x="817" y="324" type="curve" smooth="yes"/>
      <point x="817" y="688"/>
      <point x="167" y="573"/>
    </contour>
  </outline>
</glyph>
<glyph name="copyright" format="2">
  <advance width="1739"/>
  <unicode hex="00A9"/>
  <anchor x="883.6" y="1200" name="top"/>
  <outline>
    <contour>
      <point x="894" y="294" type="curve" smooth="yes"/>
      <point x="685" y="294"/>
      <point x="612" y="532"/>
      <point x="612" y="750" type="curve" smooth="yes"/>
      <point x="612" y="968"/>
      <point x="685" y="1206"/>
      <point x="894" y="1206" type="curve" smooth="yes"/>
      <point x="1031" y="1206"/>
      <point x="1161" y="1100"/>
      <point x="1161" y="954" type="curve"/>
      <point x="1164" y="954" type="line"/>
      <point x="1164" y="1200" type="line"/>
      <point x="1161" y="1200" type="line"/>
      <point x="1089" y="1131" type="line"/>
      <point x="1037" y="1181"/>
      <point x="963" y="1212"/>
      <point x="882" y="1212" type="curve" smooth="yes"/>
      <point x="638" y="1212"/>
      <point x="474" y="1018"/>
      <point x="474" y="750" type="curve" smooth="yes"/>
      <point x="474" y="482"/>
      <point x="638" y="288"/>
      <point x="882" y="288" type="curve" smooth="yes"/>
      <point x="975" y="288"/>
      <point x="1054" y="321"/>
      <point x="1107" y="375" type="curve"/>
      <point x="1173" y="300" type="line"/>
      <point x="1176" y="300" type="line"/>
      <point x="1176" y="546" type="line"/>
      <point x="1173" y="546" type="line"/>
      <point x="1173" y="412"/>
      <point x="1061" y="294"/>
    </contour>
    <contour>
      <point x="870" y="1520" type="curve" smooth="yes"/>
      <point x="444" y="1520"/>
      <point x="100" y="1176"/>
      <point x="100" y="750" type="curve" smooth="yes"/>
      <point x="100" y="324"/>
      <point x="444" y="-20"/>
      <point x="870" y="-20" type="curve" smooth="yes"/>
      <point x="1296" y="-20"/>
      <point x="1640" y="324"/>
      <point x="1640" y="750" type="curve" smooth="yes"/>
      <point x="1640" y="1176"/>
      <point x="1296" y="1520"/>
    </contour>
    <contour>
      <point x="870" y="-16" type="curve" smooth="yes"/>
      <point x="448" y="-16"/>
      <point x="104" y="328"/>
      <point x="104" y="750" type="curve" smooth="yes"/>
      <point x="104" y="1172"/>
      <point x="448" y="1516"/>
      <point x="870" y="1516" type="curve" smooth="yes"/>
      <point x="1292" y="1516"/>
      <point x="1636" y="1172"/>
      <point x="1636" y="750" type="curve" smooth="yes"/>
      <point x="1636" y="328"/>
      <point x="1292" y="-16"/>
    </contour>
  </outline>
</glyph>
<glyph name="registered" format="2">
  <advance width="1739"/>
  <unicode hex="00AE"/>
  <anchor x="905.6" y="296" name="bottom"/>
  <anchor x="684.8" y="296" name="cedilla"/>
  <anchor x="857.6" y="1196" name="top"/>
  <outline>
    <contour>
      <point x="870" y="-20" type="curve" smooth="yes"/>
      <point x="1296" y="-20"/>
      <point x="1640" y="324"/>
      <point x="1640" y="750" type="curve" smooth="yes"/>
      <point x="1640" y="1176"/>
      <point x="1296" y="1520"/>
      <point x="870" y="1520" type="curve" smooth="yes"/>
      <point x="444" y="1520"/>
      <point x="100" y="1176"/>
      <point x="100" y="750" type="curve" smooth="yes"/>
      <point x="100" y="324"/>
      <point x="444" y="-20"/>
    </contour>
    <contour>
      <point x="870" y="-16" type="curve" smooth="yes"/>
      <point x="448" y="-16"/>
      <point x="104" y="328"/>
      <point x="104" y="750" type="curve" smooth="yes"/>
      <point x="104" y="1172"/>
      <point x="448" y="1516"/>
      <point x="870" y="1516" type="curve" smooth="yes"/>
      <point x="1292" y="1516"/>
      <point x="1636" y="1172"/>
      <point x="1636" y="750" type="curve" smooth="yes"/>
      <point x="1636" y="328"/>
      <point x="1292" y="-16"/>
    </contour>
    <contour>
      <point x="1188" y="290" type="curve" smooth="yes"/>
      <point x="1241" y="290"/>
      <point x="1277" y="298"/>
      <point x="1296" y="309" type="curve"/>
      <point x="1295" y="310" type="line"/>
      <point x="1278" y="302"/>
      <point x="1255" y="296"/>
      <point x="1230" y="296" type="curve" smooth="yes"/>
      <point x="1085" y="296"/>
      <point x="1313" y="738"/>
      <point x="940" y="758" type="curve"/>
      <point x="1104" y="768"/>
      <point x="1194" y="831"/>
      <point x="1194" y="974" type="curve" smooth="yes"/>
      <point x="1194" y="1130"/>
      <point x="1075" y="1196"/>
      <point x="894" y="1196" type="curve" smooth="yes"/>
      <point x="498" y="1196" type="line"/>
      <point x="498" y="1194" type="line"/>
      <point x="630" y="1194" type="line"/>
      <point x="630" y="298" type="line"/>
      <point x="498" y="298" type="line"/>
      <point x="498" y="296" type="line"/>
      <point x="876" y="296" type="line"/>
      <point x="876" y="298" type="line"/>
      <point x="744" y="298" type="line"/>
      <point x="744" y="757" type="line"/>
      <point x="888" y="757" type="line" smooth="yes"/>
      <point x="1183" y="757"/>
      <point x="909" y="290"/>
    </contour>
    <contour>
      <point x="744" y="759" type="line"/>
      <point x="744" y="1194" type="line"/>
      <point x="894" y="1194" type="line" smooth="yes"/>
      <point x="1009" y="1194"/>
      <point x="1074" y="1105"/>
      <point x="1074" y="974" type="curve" smooth="yes"/>
      <point x="1074" y="843"/>
      <point x="1009" y="759"/>
      <point x="894" y="759" type="curve" smooth="yes"/>
    </contour>
  </outline>
</glyph>
<glyph name="degree" format="2">
  <advance width="639"/>
  <unicode hex="00B0"/>
  <outline>
    <contour>
      <point x="320" y="1120" type="curve" smooth="yes"/>
      <point x="452" y="1120"/>
      <point x="560" y="1228"/>
      <point x="560" y="1360" type="curve" smooth="yes"/>
      <point x="560" y="1492"/>
      <point x="452" y="1600"/>
      <point x="320" y="1600" type="curve" smooth="yes"/>
      <point x="188" y="1600"/>
      <point x="80" y="1492"/>
      <point x="80" y="1360" type="curve" smooth="yes"/>
      <point x="80" y="1228"/>
      <point x="188" y="1120"/>
    </contour>
    <contour>
      <point x="320" y="1160" type="curve" smooth="yes"/>
      <point x="206" y="1160"/>
      <point x="120" y="1246"/>
      <point x="120" y="1360" type="curve" smooth="yes"/>
      <point x="120" y="1474"/>
      <point x="206" y="1560"/>
      <point x="320" y="1560" type="curve" smooth="yes"/>
      <point x="434" y="1560"/>
      <point x="520" y="1474"/>
      <point x="520" y="1360" type="curve" smooth="yes"/>
      <point x="520" y="1246"/>
      <point x="434" y="1160"/>
    </contour>
  </outline>
</glyph>
<glyph name="twosuperior" format="2">
  <advance width="939"/>
  <unicode hex="00B2"/>
  <outline>
    <contour>
      <point x="200" y="914" type="line"/>
      <point x="769.4" y="914" type="line"/>
      <point x="769.4" y="1112" type="line"/>
      <point x="767" y="1112" type="line"/>
      <point x="767" y="1022" type="line"/>
      <point x="238.4" y="1022" type="line"/>
      <point x="593" y="1337" type="line" smooth="yes"/>
      <point x="660.2" y="1396.4"/>
      <point x="744.8" y="1477.4"/>
      <point x="744.8" y="1597.4" type="curve" smooth="yes"/>
      <point x="744.8" y="1717.4"/>
      <point x="651.2" y="1826"/>
      <point x="482" y="1826" type="curve" smooth="yes"/>
      <point x="302.6" y="1826"/>
      <point x="192.2" y="1722.8"/>
      <point x="216.2" y="1546.4" type="curve" smooth="yes"/>
      <point x="222.2" y="1502.6"/>
      <point x="248" y="1468.4"/>
      <point x="290" y="1468.4" type="curve" smooth="yes"/>
      <point x="332" y="1468.4"/>
      <point x="365" y="1497.2"/>
      <point x="365" y="1545.2" type="curve" smooth="yes"/>
      <point x="365" y="1587.2"/>
      <point x="327.8" y="1612.4"/>
      <point x="292.4" y="1612.4" type="curve" smooth="yes"/>
      <point x="252.8" y="1612.4"/>
      <point x="217.4" y="1582.4"/>
      <point x="217.4" y="1546.4" type="curve"/>
      <point x="219.8" y="1546.4" type="line"/>
      <point x="195.8" y="1714.4"/>
      <point x="299" y="1813.4"/>
      <point x="444.8" y="1813.4" type="curve" smooth="yes"/>
      <point x="548" y="1813.4"/>
      <point x="624.8" y="1701.8"/>
      <point x="624.8" y="1574" type="curve" smooth="yes"/>
      <point x="624.8" y="1461.2"/>
      <point x="590.6" y="1338.2"/>
      <point x="489.2" y="1248.2" type="curve" smooth="yes"/>
      <point x="200" y="992" type="line"/>
    </contour>
  </outline>
</glyph>
<glyph name="ordmasculine" format="2">
  <advance width="1104"/>
  <unicode hex="00BA"/>
  <anchor x="560.8" y="962" name="bottom"/>
  <anchor x="560.8" y="1514" name="top"/>
  <outline>
    <contour>
      <point x="560.8" y="950" type="curve" smooth="yes"/>
      <point x="730" y="950"/>
      <point x="835.6" y="1082"/>
      <point x="835.6" y="1238" type="curve" smooth="yes"/>
      <point x="835.6" y="1394"/>
      <point x="730" y="1526"/>
      <point x="560.8" y="1526" type="curve" smooth="yes"/>
      <point x="391.6" y="1526"/>
      <point x="286" y="1394"/>
      <point x="286" y="1238" type="curve" smooth="yes"/>
      <point x="286" y="1082"/>
      <point x="391.6" y="950"/>
    </contour>
    <contour>
      <point x="560.8" y="952.4" type="curve" smooth="yes"/>
      <point x="430" y="952.4"/>
      <point x="412" y="1125.2"/>
      <point x="412" y="1238" type="curve" smooth="yes"/>
      <point x="412" y="1350.8"/>
      <point x="430" y="1523.6"/>
      <point x="560.8" y="1523.6" type="curve" smooth="yes"/>
      <point x="691.6" y="1523.6"/>
      <point x="709.6" y="1350.8"/>
      <point x="709.6" y="1238" type="curve" smooth="yes"/>
      <point x="709.6" y="1125.2"/>
      <point x="691.6" y="952.4"/>
    </contour>
  </outline>
</glyph>
<glyph name="guillemetright" format="2">
  <advance width="1389"/>
  <unicode hex="00BB"/>
  <outline>
    <contour>
      <point x="680" y="290" type="line"/>
      <point x="1340" y="750" type="line"/>
      <point x="1340" y="800" type="line"/>
      <point x="680" y="1260" type="line"/>
      <point x="678" y="1258" type="line"/>
      <point x="1088" y="774" type="line"/>
      <point x="678" y="292" type="line"/>
    </contour>
    <contour>
      <point x="120" y="290" type="line"/>
      <point x="780" y="750" type="line"/>
      <point x="780" y="800" type="line"/>
      <point x="120" y="1260" type="line"/>
      <point x="118" y="1258" type="line"/>
      <point x="528" y="774" type="line"/>
      <point x="118" y="292" type="line"/>
    </contour>
  </outline>
</glyph>
<glyph name="onequarter" format="2">
  <advance width="1281"/>
  <unicode hex="00BC"/>
  <outline>
    <contour>
      <point x="80" y="-200" type="line"/>
      <point x="84" y="-200" type="line"/>
      <point x="1052" y="1300" type="line"/>
      <point x="1048" y="1300" type="line"/>
    </contour>
    <contour>
      <point x="44" y="712" type="line"/>
      <point x="446" y="712" type="line"/>
      <point x="446" y="714.4" type="line"/>
      <point x="44" y="714.4" type="line"/>
    </contour>
    <contour>
      <point x="882" y="-206" type="line"/>
      <point x="1200" y="-206" type="line"/>
      <point x="1200" y="-203.6" type="line"/>
      <point x="1110" y="-203.6" type="line"/>
      <point x="1110" y="694" type="line"/>
      <point x="1014" y="694" type="line"/>
      <point x="582" y="50.8" type="line"/>
      <point x="1242" y="50.8" type="line"/>
      <point x="1242" y="53.2" type="line"/>
      <point x="586.8" y="53.2" type="line"/>
      <point x="996" y="662.8" type="line"/>
      <point x="996" y="-203.6" type="line"/>
      <point x="882" y="-203.6" type="line"/>
    </contour>
    <contour>
      <point x="200" y="713.2" type="line"/>
      <point x="314" y="713.2" type="line"/>
      <point x="314" y="1612" type="line"/>
      <point x="64.4" y="1612" type="line"/>
      <point x="64.4" y="1609.6" type="line"/>
      <point x="200" y="1609.6" type="line"/>
    </contour>
  </outline>
</glyph>
<glyph name="onehalf" format="2">
  <advance width="1339"/>
  <unicode hex="00BD"/>
  <outline>
    <contour>
      <point x="80" y="-200" type="line"/>
      <point x="84" y="-200" type="line"/>
      <point x="1052" y="1300" type="line"/>
      <point x="1048" y="1300" type="line"/>
    </contour>
    <contour>
      <point x="44" y="712" type="line"/>
      <point x="446" y="712" type="line"/>
      <point x="446" y="714.4" type="line"/>
      <point x="44" y="714.4" type="line"/>
    </contour>
    <contour>
      <point x="730" y="-202" type="line"/>
      <point x="1299.4" y="-202" type="line"/>
      <point x="1299.4" y="-4" type="line"/>
      <point x="1297" y="-4" type="line"/>
      <point x="1297" y="-94" type="line"/>
      <point x="768.4" y="-94" type="line"/>
      <point x="1123" y="221" type="line" smooth="yes"/>
      <point x="1190.2" y="280.4"/>
      <point x="1274.8" y="361.4"/>
      <point x="1274.8" y="481.4" type="curve" smooth="yes"/>
      <point x="1274.8" y="601.4"/>
      <point x="1181.2" y="710"/>
      <point x="1012" y="710" type="curve" smooth="yes"/>
      <point x="832.6" y="710"/>
      <point x="722.2" y="606.8"/>
      <point x="746.2" y="430.4" type="curve" smooth="yes"/>
      <point x="752.2" y="386.6"/>
      <point x="778" y="352.4"/>
      <point x="820" y="352.4" type="curve" smooth="yes"/>
      <point x="862" y="352.4"/>
      <point x="895" y="381.2"/>
      <point x="895" y="429.2" type="curve" smooth="yes"/>
      <point x="895" y="471.2"/>
      <point x="857.8" y="496.4"/>
      <point x="822.4" y="496.4" type="curve" smooth="yes"/>
      <point x="782.8" y="496.4"/>
      <point x="747.4" y="466.4"/>
      <point x="747.4" y="430.4" type="curve"/>
      <point x="749.8" y="430.4" type="line"/>
      <point x="725.8" y="598.4"/>
      <point x="829" y="697.4"/>
      <point x="974.8" y="697.4" type="curve" smooth="yes"/>
      <point x="1078" y="697.4"/>
      <point x="1154.8" y="585.8"/>
      <point x="1154.8" y="458" type="curve" smooth="yes"/>
      <point x="1154.8" y="345.2"/>
      <point x="1120.6" y="222.2"/>
      <point x="1019.2" y="132.2" type="curve" smooth="yes"/>
      <point x="730" y="-124" type="line"/>
    </contour>
    <contour>
      <point x="200" y="713.2" type="line"/>
      <point x="314" y="713.2" type="line"/>
      <point x="314" y="1612" type="line"/>
      <point x="64.4" y="1612" type="line"/>
      <point x="64.4" y="1609.6" type="line"/>
      <point x="200" y="1609.6" type="line"/>
    </contour>
  </outline>
</glyph>
<glyph name="Thorn" format="2">
  <advance width="1209"/>
  <unicode hex="00DE"/>
  <outline>
    <contour>
      <point x="360" y="360" type="line"/>
      <point x="620" y="360" type="line" smooth="yes"/>
      <point x="982" y="360"/>
      <point x="1140" y="520"/>
      <point x="1140" y="780" type="curve" smooth="yes"/>
      <point x="1140" y="1040"/>
      <point x="982" y="1200"/>
      <point x="620" y="1200" type="curve" smooth="yes"/>
      <point x="360" y="1200" type="line"/>
      <point x="360" y="1196" type="line"/>
      <point x="620" y="1196" type="line" smooth="yes"/>
      <point x="812" y="1196"/>
      <point x="920" y="958"/>
      <point x="920" y="780" type="curve" smooth="yes"/>
      <point x="920" y="602"/>
      <point x="812" y="364"/>
      <point x="620" y="364" type="curve" smooth="yes"/>
      <point x="360" y="364" type="line"/>
    </contour>
    <contour>
      <point x="30" y="0" type="line"/>
      <point x="580" y="0" type="line"/>
      <point x="580" y="4" type="line"/>
      <point x="30" y="4" type="line"/>
    </contour>
    <contour>
      <point x="210" y="0" type="line"/>
      <point x="400" y="0" type="line"/>
      <point x="400" y="1500" type="line"/>
      <point x="210" y="1500" type="line"/>
    </contour>
    <contour>
      <point x="30" y="1496" type="line"/>
      <point x="580" y="1496" type="line"/>
      <point x="580" y="1500" type="line"/>
      <point x="30" y="1500" type="line"/>
    </contour>
  </outline>
</glyph>
<glyph name="oslash" format="2">
  <advance width="1104"/>
  <unicode hex="00F8"/>
  <outline>
    <contour>
      <point x="112" y="-246.452" type="line"/>
      <point x="116" y="-246.452" type="line"/>
      <point x="992" y="1157.55" type="line"/>
      <point x="988" y="1157.55" type="line"/>
    </contour>
    <component base="o"/>
  </outline>
</glyph>
<glyph name="Dcroat" format="2">
  <advance width="1399"/>
  <unicode hex="0110"/>
  <outline>
    <contour>
      <point x="86.002" y="748" type="line"/>
      <point x="670.008" y="748" type="line"/>
      <point x="670.008" y="752" type="line"/>
      <point x="86.002" y="752" type="line"/>
    </contour>
    <component base="D"/>
  </outline>
</glyph>
<glyph name="Hbar" format="2">
  <advance width="1473"/>
  <unicode hex="0126"/>
  <outline>
    <contour>
      <point x="36" y="1116" type="line"/>
      <point x="1436.002" y="1116" type="line"/>
      <point x="1436.002" y="1120" type="line"/>
      <point x="36" y="1120" type="line"/>
    </contour>
    <component base="H"/>
  </outline>
</glyph>
<glyph name="lslash" format="2">
  <advance width="627"/>
  <unicode hex="0142"/>
  <outline>
    <contour>
      <point x="44" y="796" type="line"/>
      <point x="614" y="1156" type="line"/>
      <point x="614" y="1160" type="line"/>
      <point x="44" y="800" type="line"/>
    </contour>
    <component base="l"/>
  </outline>
</glyph>
<glyph name="acutecomb" format="2">
  <unicode hex="0301"/>
  <anchor x="418" y="1500" name="_top"/>
  <outline>
    <contour>
      <point x="346" y="1693" type="line"/>
      <point x="620" y="1817" type="line" smooth="yes"/>
      <point x="654" y="1832"/>
      <point x="666" y="1882"/>
      <point x="647" y="1915" type="curve" smooth="yes"/>
      <point x="628" y="1948"/>
      <point x="572" y="1971"/>
      <point x="535" y="1926" type="curve" smooth="yes"/>
      <point x="344" y="1696" type="line"/>
    </contour>
  </outline>
</glyph>
<glyph name="circumflexcomb" format="2">
  <unicode hex="0302"/>
  <anchor x="499" y="1500" name="_top"/>
  <outline>
    <contour>
      <point x="217" y="1715" type="line"/>
      <point x="499" y="1849" type="line"/>
      <point x="783" y="1715" type="line"/>
      <point x="785" y="1719" type="line"/>
      <point x="565" y="1939" type="line"/>
      <point x="435" y="1939" type="line"/>
      <point x="215" y="1719" type="line"/>
    </contour>
  </outline>
</glyph>
<glyph name="dotaccentcomb" format="2">
  <unicode hex="0307"/>
  <anchor x="500" y="920" name="_top"/>
  <outline>
    <contour>
      <point x="500" y="1280" type="curve" smooth="yes"/>
      <point x="566" y="1280"/>
      <point x="620" y="1334"/>
      <point x="620" y="1400" type="curve" smooth="yes"/>
      <point x="620" y="1466"/>
      <point x="566" y="1520"/>
      <point x="500" y="1520" type="curve" smooth="yes"/>
      <point x="434" y="1520"/>
      <point x="380" y="1466"/>
      <point x="380" y="1400" type="curve" smooth="yes"/>
      <point x="380" y="1334"/>
      <point x="434" y="1280"/>
    </contour>
  </outline>
</glyph>
<glyph name="caroncomb" format="2">
  <unicode hex="030C"/>
  <anchor x="499" y="1500" name="_top"/>
  <outline>
    <contour>
      <point x="435" y="1700" type="line"/>
      <point x="565" y="1700" type="line"/>
      <point x="785" y="1920" type="line"/>
      <point x="781" y="1922" type="line"/>
      <point x="499" y="1790" type="line"/>
      <point x="219" y="1922" type="line"/>
      <point x="215" y="1920" type="line"/>
    </contour>
  </outline>
</glyph>
<glyph name="breveinvertedcomb" format="2">
  <unicode hex="0311"/>
  <anchor x="497" y="1500" name="_top"/>
  <outline>
    <contour>
      <point x="280" y="1680" type="curve"/>
      <point x="284" y="1680" type="line"/>
      <point x="284" y="1778"/>
      <point x="392" y="1828"/>
      <point x="500" y="1828" type="curve" smooth="yes"/>
      <point x="608" y="1828"/>
      <point x="716" y="1778"/>
      <point x="716" y="1680" type="curve"/>
      <point x="720" y="1680" type="line"/>
      <point x="720" y="1802"/>
      <point x="680" y="1938"/>
      <point x="500" y="1938" type="curve" smooth="yes"/>
      <point x="320" y="1938"/>
      <point x="280" y="1802"/>
    </contour>
  </outline>
</glyph>
<glyph name="cedillacomb" format="2">
  <unicode hex="0327"/>
  <anchor x="479" y="4" name="_bottom"/>
  <outline>
    <contour>
      <point x="345" y="-474" type="line"/>
      <point x="587" y="-474"/>
      <point x="683" y="-410"/>
      <point x="683" y="-310" type="curve" smooth="yes"/>
      <point x="683" y="-198"/>
      <point x="527" y="-154"/>
      <point x="383" y="-148" type="curve"/>
      <point x="494" y="2" type="line"/>
      <point x="488" y="2" type="line"/>
      <point x="317" y="-228" type="line"/>
      <point x="447" y="-228"/>
      <point x="541" y="-244"/>
      <point x="541" y="-350" type="curve" smooth="yes"/>
      <point x="541" y="-418"/>
      <point x="463" y="-470"/>
      <point x="345" y="-470" type="curve"/>
    </contour>
  </outline>
</glyph>
<glyph name="quotedblleft" format="2">
  <advance width="819"/>
  <unicode hex="201C"/>
  <outline>
    <contour>
      <point x="606" y="1032" type="curve" smooth="yes"/>
      <point x="682" y="1032"/>
      <point x="740" y="1084"/>
      <point x="740" y="1150" type="curve" smooth="yes"/>
      <point x="740" y="1216"/>
      <point x="700" y="1268"/>
      <point x="614" y="1268" type="curve" smooth="yes"/>
      <point x="530" y="1268"/>
      <point x="473" y="1194"/>
      <point x="483" y="1134" type="curve"/>
      <point x="485" y="1134" type="line"/>
      <point x="432" y="1315"/>
      <point x="538" y="1538"/>
      <point x="744" y="1538" type="curve"/>
      <point x="744" y="1542" type="line"/>
      <point x="564" y="1542"/>
      <point x="466" y="1380"/>
      <point x="466" y="1230" type="curve" smooth="yes"/>
      <point x="466" y="1104"/>
      <point x="528" y="1032"/>
    </contour>
    <contour>
      <point x="216" y="1032" type="curve" smooth="yes"/>
      <point x="292" y="1032"/>
      <point x="350" y="1084"/>
      <point x="350" y="1150" type="curve" smooth="yes"/>
      <point x="350" y="1216"/>
      <point x="310" y="1268"/>
      <point x="224" y="1268" type="curve" smooth="yes"/>
      <point x="140" y="1268"/>
      <point x="83" y="1194"/>
      <point x="93" y="1134" type="curve"/>
      <point x="95" y="1134" type="line"/>
      <point x="42" y="1315"/>
      <point x="148" y="1538"/>
      <point x="354" y="1538" type="curve"/>
      <point x="354" y="1542" type="line"/>
      <point x="174" y="1542"/>
      <point x="76" y="1380"/>
      <point x="76" y="1230" type="curve" smooth="yes"/>
      <point x="76" y="1104"/>
      <point x="138" y="1032"/>
    </contour>
  </outline>
</glyph>
<glyph name="quotedblright" format="2">
  <advance width="819"/>
  <unicode hex="201D"/>
  <outline>
    <contour>
      <point x="466" y="1030" type="line"/>
      <point x="646" y="1030"/>
      <point x="744" y="1192"/>
      <point x="744" y="1342" type="curve" smooth="yes"/>
      <point x="744" y="1468"/>
      <point x="682" y="1540"/>
      <point x="604" y="1540" type="curve" smooth="yes"/>
      <point x="528" y="1540"/>
      <point x="470" y="1488"/>
      <point x="470" y="1422" type="curve" smooth="yes"/>
      <point x="470" y="1356"/>
      <point x="510" y="1304"/>
      <point x="596" y="1304" type="curve" smooth="yes"/>
      <point x="680" y="1304"/>
      <point x="737" y="1378"/>
      <point x="727" y="1438" type="curve"/>
      <point x="725" y="1438" type="line"/>
      <point x="778" y="1257"/>
      <point x="672" y="1034"/>
      <point x="466" y="1034" type="curve"/>
    </contour>
    <contour>
      <point x="76" y="1030" type="line"/>
      <point x="256" y="1030"/>
      <point x="354" y="1192"/>
      <point x="354" y="1342" type="curve" smooth="yes"/>
      <point x="354" y="1468"/>
      <point x="292" y="1540"/>
      <point x="214" y="1540" type="curve" smooth="yes"/>
      <point x="138" y="1540"/>
      <point x="80" y="1488"/>
      <point x="80" y="1422" type="curve" smooth="yes"/>
      <point x="80" y="1356"/>
      <point x="120" y="1304"/>
      <point x="206" y="1304" type="curve" smooth="yes"/>
      <point x="290" y="1304"/>
      <point x="347" y="1378"/>
      <point x="337" y="1438" type="curve"/>
      <point x="335" y="1438" type="line"/>
      <point x="388" y="1257"/>
      <point x="282" y="1034"/>
      <point x="76" y="1034" type="curve"/>
    </contour>
  </outline>
</glyph>
<glyph name="quotedblbase" format="2">
  <advance width="819"/>
  <unicode hex="201E"/>
  <outline>
    <contour>
      <point x="466" y="-294" type="line"/>
      <point x="646" y="-294"/>
      <point x="744" y="-132"/>
      <point x="744" y="18" type="curve" smooth="yes"/>
      <point x="744" y="144"/>
      <point x="682" y="216"/>
      <point x="604" y="216" type="curve" smooth="yes"/>
      <point x="528" y="216"/>
      <point x="470" y="164"/>
      <point x="470" y="98" type="curve" smooth="yes"/>
      <point x="470" y="32"/>
      <point x="510" y="-20"/>
      <point x="596" y="-20" type="curve" smooth="yes"/>
      <point x="680" y="-20"/>
      <point x="737" y="54"/>
      <point x="727" y="114" type="curve"/>
      <point x="725" y="114" type="line"/>
      <point x="778" y="-67"/>
      <point x="672" y="-290"/>
      <point x="466" y="-290" type="curve"/>
    </contour>
    <contour>
      <point x="76" y="-294" type="line"/>
      <point x="256" y="-294"/>
      <point x="354" y="-132"/>
      <point x="354" y="18" type="curve" smooth="yes"/>
      <point x="354" y="144"/>
      <point x="292" y="216"/>
      <point x="214" y="216" type="curve" smooth="yes"/>
      <point x="138" y="216"/>
      <point x="80" y="164"/>
      <point x="80" y="98" type="curve" smooth="yes"/>
      <point x="80" y="32"/>
      <point x="120" y="-20"/>
      <point x="206" y="-20" type="curve" smooth="yes"/>
      <point x="290" y="-20"/>
      <point x="347" y="54"/>
      <point x="337" y="114" type="curve"/>
      <point x="335" y="114" type="line"/>
      <point x="388" y="-67"/>
      <point x="282" y="-290"/>
      <point x="76" y="-290" type="curve"/>
    </contour>
  </outline>
</glyph>
<glyph name="daggerdbl" format="2">
  <advance width="1186"/>
  <unicode hex="2021"/>
  <outline>
    <contour>
      <point x="593" y="-520" type="curve" smooth="yes"/>
      <point x="652" y="-520"/>
      <point x="693" y="-476"/>
      <point x="693" y="-398" type="curve" smooth="yes"/>
      <point x="693" y="-386"/>
      <point x="693" y="-375"/>
      <point x="691" y="-361" type="curve" smooth="yes"/>
      <point x="670" y="-211"/>
      <point x="595" y="-198"/>
      <point x="595" y="21" type="curve"/>
      <point x="715" y="20"/>
      <point x="778" y="-53"/>
      <point x="927" y="-74" type="curve" smooth="yes"/>
      <point x="941" y="-76"/>
      <point x="952" y="-76"/>
      <point x="964" y="-76" type="curve" smooth="yes"/>
      <point x="1042" y="-76"/>
      <point x="1086" y="-35"/>
      <point x="1086" y="24" type="curve" smooth="yes"/>
      <point x="1086" y="83"/>
      <point x="1042" y="124"/>
      <point x="964" y="124" type="curve" smooth="yes"/>
      <point x="952" y="124"/>
      <point x="941" y="124"/>
      <point x="927" y="122" type="curve" smooth="yes"/>
      <point x="778" y="101"/>
      <point x="715" y="26"/>
      <point x="595" y="25" type="curve"/>
      <point x="595" y="224"/>
      <point x="659" y="400"/>
      <point x="729" y="500" type="curve"/>
      <point x="659" y="600"/>
      <point x="595" y="776"/>
      <point x="595" y="975" type="curve"/>
      <point x="715" y="974"/>
      <point x="778" y="899"/>
      <point x="927" y="878" type="curve" smooth="yes"/>
      <point x="941" y="876"/>
      <point x="952" y="876"/>
      <point x="964" y="876" type="curve" smooth="yes"/>
      <point x="1042" y="876"/>
      <point x="1086" y="917"/>
      <point x="1086" y="976" type="curve" smooth="yes"/>
      <point x="1086" y="1035"/>
      <point x="1042" y="1076"/>
      <point x="964" y="1076" type="curve" smooth="yes"/>
      <point x="952" y="1076"/>
      <point x="941" y="1076"/>
      <point x="927" y="1074" type="curve" smooth="yes"/>
      <point x="778" y="1053"/>
      <point x="715" y="980"/>
      <point x="595" y="979" type="curve"/>
      <point x="595" y="1198"/>
      <point x="670" y="1211"/>
      <point x="691" y="1361" type="curve" smooth="yes"/>
      <point x="693" y="1375"/>
      <point x="693" y="1386"/>
      <point x="693" y="1398" type="curve" smooth="yes"/>
      <point x="693" y="1476"/>
      <point x="652" y="1520"/>
      <point x="593" y="1520" type="curve" smooth="yes"/>
      <point x="534" y="1520"/>
      <point x="493" y="1476"/>
      <point x="493" y="1398" type="curve" smooth="yes"/>
      <point x="493" y="1386"/>
      <point x="493" y="1375"/>
      <point x="495" y="1361" type="curve" smooth="yes"/>
      <point x="516" y="1211"/>
      <point x="591" y="1198"/>
      <point x="591" y="979" type="curve"/>
      <point x="471" y="980"/>
      <point x="408" y="1053"/>
      <point x="259" y="1074" type="curve" smooth="yes"/>
      <point x="245" y="1076"/>
      <point x="234" y="1076"/>
      <point x="222" y="1076" type="curve" smooth="yes"/>
      <point x="144" y="1076"/>
      <point x="100" y="1035"/>
      <point x="100" y="976" type="curve" smooth="yes"/>
      <point x="100" y="917"/>
      <point x="144" y="876"/>
      <point x="222" y="876" type="curve" smooth="yes"/>
      <point x="234" y="876"/>
      <point x="245" y="876"/>
      <point x="259" y="878" type="curve" smooth="yes"/>
      <point x="408" y="899"/>
      <point x="471" y="974"/>
      <point x="591" y="975" type="curve"/>
      <point x="591" y="776"/>
      <point x="527" y="600"/>
      <point x="457" y="500" type="curve"/>
      <point x="527" y="400"/>
      <point x="591" y="224"/>
      <point x="591" y="25" type="curve"/>
      <point x="471" y="26"/>
      <point x="408" y="101"/>
      <point x="259" y="122" type="curve" smooth="yes"/>
      <point x="245" y="124"/>
      <point x="234" y="124"/>
      <point x="222" y="124" type="curve" smooth="yes"/>
      <point x="144" y="124"/>
      <point x="100" y="83"/>
      <point x="100" y="24" type="curve" smooth="yes"/>
      <point x="100" y="-35"/>
      <point x="144" y="-76"/>
      <point x="222" y="-76" type="curve" smooth="yes"/>
      <point x="234" y="-76"/>
      <point x="245" y="-76"/>
      <point x="259" y="-74" type="curve" smooth="yes"/>
      <point x="408" y="-53"/>
      <point x="471" y="20"/>
      <point x="591" y="21" type="curve"/>
      <point x="591" y="-198"/>
      <point x="516" y="-211"/>
      <point x="495" y="-361" type="curve" smooth="yes"/>
      <point x="493" y="-375"/>
      <point x="493" y="-386"/>
      <point x="493" y="-398" type="curve" smooth="yes"/>
      <point x="493" y="-476"/>
      <point x="534" y="-520"/>
    </contour>
  </outline>
</glyph>
<glyph name="trademark" format="2">
  <advance width="1233"/>
  <unicode hex="2122"/>
  <anchor x="299.68" y="974" name="bottom"/>
  <anchor x="297.88" y="1514" name="top"/>
  <outline>
    <contour>
      <point x="846" y="967" type="line"/>
      <point x="847" y="967" type="line"/>
      <point x="1039" y="1511" type="line"/>
      <point x="1039" y="975" type="line"/>
      <point x="981" y="975" type="line"/>
      <point x="981" y="974" type="line"/>
      <point x="1158" y="974" type="line"/>
      <point x="1158" y="975" type="line"/>
      <point x="1108" y="975" type="line"/>
      <point x="1108" y="1513" type="line"/>
      <point x="1158" y="1513" type="line"/>
      <point x="1158" y="1514" type="line"/>
      <point x="1039" y="1514" type="line"/>
      <point x="880" y="1067" type="line"/>
      <point x="714" y="1514" type="line"/>
      <point x="589" y="1514" type="line"/>
      <point x="589" y="1513" type="line"/>
      <point x="645" y="1513" type="line"/>
      <point x="645" y="975" type="line"/>
      <point x="593" y="975" type="line"/>
      <point x="593" y="974" type="line"/>
      <point x="702" y="974" type="line"/>
      <point x="702" y="975" type="line"/>
      <point x="646" y="975" type="line"/>
      <point x="646" y="1511" type="line"/>
    </contour>
    <contour>
      <point x="184" y="974" type="line"/>
      <point x="411" y="974" type="line"/>
      <point x="411" y="975" type="line"/>
      <point x="332" y="975" type="line"/>
      <point x="332" y="1513" type="line"/>
      <point x="403" y="1513" type="line" smooth="yes"/>
      <point x="488" y="1513"/>
      <point x="510" y="1443"/>
      <point x="510" y="1352" type="curve"/>
      <point x="512" y="1352" type="line"/>
      <point x="512" y="1514" type="line"/>
      <point x="83" y="1514" type="line"/>
      <point x="83" y="1352" type="line"/>
      <point x="85" y="1352" type="line"/>
      <point x="85" y="1443"/>
      <point x="107" y="1513"/>
      <point x="191" y="1513" type="curve" smooth="yes"/>
      <point x="263" y="1513" type="line"/>
      <point x="263" y="975" type="line"/>
      <point x="184" y="975" type="line"/>
    </contour>
  </outline>
</glyph>
<glyph name="partialdiff" format="2">
  <advance width="1119"/>
  <unicode hex="2202"/>
  <outline>
    <contour>
      <point x="531" y="-20" type="curve" smooth="yes"/>
      <point x="833" y="-20"/>
      <point x="1019" y="330"/>
      <point x="1019" y="750" type="curve" smooth="yes"/>
      <point x="1019" y="1236"/>
      <point x="854" y="1520"/>
      <point x="569" y="1520" type="curve"/>
      <point x="549" y="1513" type="line"/>
      <point x="807" y="1513"/>
      <point x="808" y="1084"/>
      <point x="808" y="900" type="curve"/>
      <point x="819" y="601" type="line"/>
      <point x="819" y="333"/>
      <point x="743" y="-16"/>
      <point x="525" y="-16" type="curve" smooth="yes"/>
      <point x="307" y="-16"/>
      <point x="260" y="271"/>
      <point x="260" y="500" type="curve" smooth="yes"/>
      <point x="260" y="768"/>
      <point x="363" y="975"/>
      <point x="541" y="975" type="curve" smooth="yes"/>
      <point x="707" y="975"/>
      <point x="819" y="822"/>
      <point x="819" y="601" type="curve"/>
      <point x="823" y="601" type="line"/>
      <point x="823" y="825"/>
      <point x="710" y="980"/>
      <point x="527" y="980" type="curve" smooth="yes"/>
      <point x="325" y="980"/>
      <point x="58" y="840"/>
      <point x="58" y="500" type="curve" smooth="yes"/>
      <point x="58" y="200"/>
      <point x="229" y="-20"/>
    </contour>
    <contour>
      <point x="362" y="1206" type="curve" smooth="yes"/>
      <point x="417" y="1206"/>
      <point x="476" y="1240"/>
      <point x="476" y="1320" type="curve" smooth="yes"/>
      <point x="476" y="1388"/>
      <point x="419" y="1426"/>
      <point x="362" y="1426" type="curve" smooth="yes"/>
      <point x="309" y="1426"/>
      <point x="255" y="1384"/>
      <point x="255" y="1316" type="curve"/>
      <point x="257" y="1316" type="line"/>
      <point x="257" y="1433"/>
      <point x="406" y="1513"/>
      <point x="549" y="1513" type="curve"/>
      <point x="569" y="1520" type="line"/>
      <point x="416" y="1521"/>
      <point x="253" y="1440"/>
      <point x="253" y="1316" type="curve" smooth="yes"/>
      <point x="253" y="1244"/>
      <point x="301" y="1206"/>
    </contour>
  </outline>
</glyph>
<glyph name="uniF8E9" format="2">
  <advance width="1119"/>
  <unicode hex="F8E9"/>
  <outline>
    <contour>
      <point x="560" y="1592" type="curve" smooth="yes"/>
      <point x="304" y="1592"/>
      <point x="98" y="1386"/>
      <point x="98" y="1130" type="curve" smooth="yes"/>
      <point x="98" y="874"/>
      <point x="304" y="668"/>
      <point x="560" y="668" type="curve" smooth="yes"/>
      <point x="816" y="668"/>
      <point x="1022" y="874"/>
      <point x="1022" y="1130" type="curve" smooth="yes"/>
      <point x="1022" y="1386"/>
      <point x="816" y="1592"/>
    </contour>
    <contour>
      <point x="560" y="670" type="curve" smooth="yes"/>
      <point x="307" y="670"/>
      <point x="100" y="877"/>
      <point x="100" y="1130" type="curve" smooth="yes"/>
      <point x="100" y="1383"/>
      <point x="307" y="1590"/>
      <point x="560" y="1590" type="curve" smooth="yes"/>
      <point x="813" y="1590"/>
      <point x="1020" y="1383"/>
      <point x="1020" y="1130" type="curve" smooth="yes"/>
      <point x="1020" y="877"/>
      <point x="813" y="670"/>
    </contour>
    <contour>
      <point x="574" y="856" type="curve" smooth="yes"/>
      <point x="449" y="856"/>
      <point x="405" y="999"/>
      <point x="405" y="1130" type="curve" smooth="yes"/>
      <point x="405" y="1261"/>
      <point x="449" y="1404"/>
      <point x="574" y="1404" type="curve" smooth="yes"/>
      <point x="657" y="1404"/>
      <point x="735" y="1340"/>
      <point x="735" y="1252" type="curve"/>
      <point x="736" y="1252" type="line"/>
      <point x="736" y="1400" type="line"/>
      <point x="735" y="1400" type="line"/>
      <point x="691" y="1358" type="line"/>
      <point x="660" y="1389"/>
      <point x="616" y="1407"/>
      <point x="567" y="1407" type="curve" smooth="yes"/>
      <point x="421" y="1407"/>
      <point x="322" y="1291"/>
      <point x="322" y="1130" type="curve" smooth="yes"/>
      <point x="322" y="969"/>
      <point x="421" y="853"/>
      <point x="567" y="853" type="curve" smooth="yes"/>
      <point x="623" y="853"/>
      <point x="671" y="873"/>
      <point x="702" y="905" type="curve"/>
      <point x="742" y="860" type="line"/>
      <point x="744" y="860" type="line"/>
      <point x="744" y="1008" type="line"/>
      <point x="742" y="1008" type="line"/>
      <point x="742" y="927"/>
      <point x="675" y="856"/>
    </contour>
  </outline>
</glyph>
<glyph name="caroncomb.alt" format="2">
  <anchor x="341" y="920" name="_topright"/>
  <outline>
    <contour>
      <point x="361" y="990" type="line"/>
      <point x="541" y="990"/>
      <point x="639" y="1152"/>
      <point x="639" y="1302" type="curve" smooth="yes"/>
      <point x="639" y="1428"/>
      <point x="577" y="1500"/>
      <point x="499" y="1500" type="curve" smooth="yes"/>
      <point x="423" y="1500"/>
      <point x="365" y="1448"/>
      <point x="365" y="1382" type="curve" smooth="yes"/>
      <point x="365" y="1316"/>
      <point x="405" y="1264"/>
      <point x="491" y="1264" type="curve" smooth="yes"/>
      <point x="575" y="1264"/>
      <point x="632" y="1338"/>
      <point x="622" y="1398" type="curve"/>
      <point x="620" y="1398" type="line"/>
      <point x="673" y="1217"/>
      <point x="567" y="994"/>
      <point x="361" y="994" type="curve"/>
    </contour>
  </outline>
</glyph>
<glyph name="e.sc" format="2">
  <advance width="1078"/>
  <anchor x="545" y="0" name="bottom"/>
  <anchor x="815" y="0" name="ogonek"/>
  <anchor x="573" y="1020" name="top"/>
  <outline>
    <contour>
      <point x="685" y="377" type="curve"/>
      <point x="689" y="377" type="line"/>
      <point x="689" y="706" type="line"/>
      <point x="685" y="706" type="line"/>
      <point x="685" y="602"/>
      <point x="558" y="547"/>
      <point x="475" y="547" type="curve" smooth="yes"/>
      <point x="365" y="547" type="line"/>
      <point x="365" y="543" type="line"/>
      <point x="475" y="543" type="line" smooth="yes"/>
      <point x="558" y="543"/>
      <point x="685" y="481"/>
    </contour>
    <contour>
      <point x="964" y="350" type="line"/>
      <point x="964" y="94"/>
      <point x="808" y="4"/>
      <point x="635" y="4" type="curve" smooth="yes"/>
      <point x="406" y="4" type="line"/>
      <point x="406" y="1016" type="line"/>
      <point x="666" y="1016" type="line" smooth="yes"/>
      <point x="800" y="1016"/>
      <point x="955" y="924"/>
      <point x="955" y="710" type="curve"/>
      <point x="959" y="710" type="line"/>
      <point x="959" y="1020" type="line"/>
      <point x="85" y="1020" type="line"/>
      <point x="85" y="1016" type="line"/>
      <point x="216" y="1016" type="line"/>
      <point x="216" y="4" type="line"/>
      <point x="85" y="4" type="line"/>
      <point x="85" y="0" type="line"/>
      <point x="968" y="0" type="line"/>
      <point x="968" y="350" type="line"/>
    </contour>
  </outline>
</glyph>
<glyph name="f.sc" format="2">
  <advance width="998"/>
  <anchor x="325" y="0" name="bottom"/>
  <anchor x="613" y="1020" name="top"/>
  <outline>
    <contour>
      <point x="705" y="346" type="curve"/>
      <point x="709" y="346" type="line"/>
      <point x="709" y="655" type="line"/>
      <point x="705" y="655" type="line"/>
      <point x="705" y="571"/>
      <point x="610" y="508"/>
      <point x="486" y="508" type="curve" smooth="yes"/>
      <point x="375" y="508" type="line"/>
      <point x="375" y="504" type="line"/>
      <point x="486" y="504" type="line" smooth="yes"/>
      <point x="610" y="504"/>
      <point x="705" y="430"/>
    </contour>
    <contour>
      <point x="938" y="1020" type="line"/>
      <point x="85" y="1020" type="line"/>
      <point x="85" y="1015" type="line"/>
      <point x="216" y="1015" type="line"/>
      <point x="216" y="4" type="line"/>
      <point x="85" y="4" type="line"/>
      <point x="85" y="0" type="line"/>
      <point x="555" y="0" type="line"/>
      <point x="555" y="4" type="line"/>
      <point x="406" y="4" type="line"/>
      <point x="406" y="1015" type="line"/>
      <point x="625" y="1015" type="line" smooth="yes"/>
      <point x="789" y="1015"/>
      <point x="934" y="894"/>
      <point x="934" y="710" type="curve"/>
      <point x="938" y="710" type="line"/>
    </contour>
  </outline>
</glyph>
<glyph name="f_f_i" format="2">
  <advance width="1767"/>
  <outline>
    <contour>
      <point x="1393" y="0" type="line"/>
      <point x="1573" y="0" type="line"/>
      <point x="1573" y="920" type="line"/>
      <point x="55" y="920" type="line"/>
      <point x="55" y="916" type="line"/>
      <point x="1393" y="916" type="line"/>
    </contour>
    <contour>
      <point x="55" y="0" type="line"/>
      <point x="1693" y="0" type="line"/>
      <point x="1693" y="4" type="line"/>
      <point x="55" y="4" type="line"/>
    </contour>
    <contour>
      <point x="215" y="0" type="line"/>
      <point x="395" y="0" type="line"/>
      <point x="395" y="980" type="line" smooth="yes"/>
      <point x="395" y="1234"/>
      <point x="474" y="1416"/>
      <point x="654" y="1416" type="curve" smooth="yes"/>
      <point x="834" y="1416"/>
      <point x="941" y="1304"/>
      <point x="941" y="1212" type="curve"/>
      <point x="943" y="1212" type="line"/>
      <point x="943" y="1272"/>
      <point x="884" y="1308"/>
      <point x="830" y="1308" type="curve" smooth="yes"/>
      <point x="780" y="1308"/>
      <point x="719" y="1267"/>
      <point x="719" y="1197" type="curve" smooth="yes"/>
      <point x="719" y="1117"/>
      <point x="780" y="1088"/>
      <point x="830" y="1088" type="curve" smooth="yes"/>
      <point x="891" y="1088"/>
      <point x="945" y="1130"/>
      <point x="945" y="1212" type="curve" smooth="yes"/>
      <point x="945" y="1306"/>
      <point x="836" y="1420"/>
      <point x="654" y="1420" type="curve" smooth="yes"/>
      <point x="374" y="1420"/>
      <point x="215" y="1185"/>
      <point x="215" y="923" type="curve" smooth="yes"/>
    </contour>
    <contour>
      <point x="815" y="0" type="line"/>
      <point x="995" y="0" type="line"/>
      <point x="995" y="1080" type="line" smooth="yes"/>
      <point x="995" y="1334"/>
      <point x="1089" y="1516"/>
      <point x="1269" y="1516" type="curve" smooth="yes"/>
      <point x="1451" y="1516"/>
      <point x="1581" y="1413"/>
      <point x="1581" y="1322" type="curve"/>
      <point x="1583" y="1322" type="line"/>
      <point x="1583" y="1382"/>
      <point x="1524" y="1418"/>
      <point x="1470" y="1418" type="curve" smooth="yes"/>
      <point x="1420" y="1418"/>
      <point x="1359" y="1377"/>
      <point x="1359" y="1307" type="curve" smooth="yes"/>
      <point x="1359" y="1227"/>
      <point x="1420" y="1198"/>
      <point x="1470" y="1198" type="curve" smooth="yes"/>
      <point x="1531" y="1198"/>
      <point x="1585" y="1240"/>
      <point x="1585" y="1322" type="curve" smooth="yes"/>
      <point x="1585" y="1416"/>
      <point x="1451" y="1520"/>
      <point x="1269" y="1520" type="curve" smooth="yes"/>
      <point x="989" y="1520"/>
      <point x="815" y="1285"/>
      <point x="815" y="1023" type="curve" smooth="yes"/>
    </contour>
  </outline>
</glyph>
<glyph name="five.osf" format="2">
  <advance width="1000"/>
  <outline>
    <contour>
      <point x="432" y="-525.018" type="curve" smooth="yes"/>
      <point x="734" y="-525.018"/>
      <point x="939" y="-315.822"/>
      <point x="939" y="-68.591" type="curve" smooth="yes"/>
      <point x="939" y="216.676"/>
      <point x="766" y="386.886"/>
      <point x="504" y="386.886" type="curve" smooth="yes"/>
      <point x="302" y="386.886"/>
      <point x="168" y="281.337"/>
      <point x="136" y="210.971" type="curve"/>
      <point x="140" y="210.971" type="line"/>
      <point x="173" y="273.73"/>
      <point x="287" y="365.966"/>
      <point x="430" y="365.966" type="curve" smooth="yes"/>
      <point x="608" y="365.966"/>
      <point x="730" y="187.199"/>
      <point x="730" y="-68.591" type="curve" smooth="yes"/>
      <point x="730" y="-275.885"/>
      <point x="690" y="-521.214"/>
      <point x="432" y="-521.214" type="curve" smooth="yes"/>
      <point x="233" y="-521.214"/>
      <point x="67" y="-396.648"/>
      <point x="67" y="-260.67" type="curve"/>
      <point x="63" y="-260.67" type="line"/>
      <point x="63" y="-317.724"/>
      <point x="122" y="-353.858"/>
      <point x="174" y="-353.858" type="curve" smooth="yes"/>
      <point x="233" y="-353.858"/>
      <point x="288" y="-315.822"/>
      <point x="288" y="-249.26" type="curve" smooth="yes"/>
      <point x="288" y="-173.188"/>
      <point x="224" y="-142.76"/>
      <point x="174" y="-142.76" type="curve" smooth="yes"/>
      <point x="113" y="-142.76"/>
      <point x="61" y="-182.697"/>
      <point x="61" y="-260.67" type="curve" smooth="yes"/>
      <point x="61" y="-398.549"/>
      <point x="228" y="-525.018"/>
    </contour>
    <contour>
      <point x="134" y="210.971" type="line"/>
      <point x="138" y="210.971" type="line"/>
      <point x="138" y="749.175" type="line"/>
      <point x="870" y="749.175" type="line"/>
      <point x="870" y="1023.982" type="line"/>
      <point x="866" y="1023.982" type="line"/>
      <point x="866" y="920.335" type="line"/>
      <point x="134" y="920.335" type="line"/>
    </contour>
  </outline>
</glyph>
<glyph name="four.osf" format="2">
  <advance width="1099"/>
  <outline>
    <contour>
      <point x="753" y="0" type="line"/>
      <point x="1080" y="0" type="line"/>
      <point x="1080" y="4" type="line"/>
      <point x="753" y="4" type="line"/>
    </contour>
    <contour>
      <point x="753" y="4" type="line"/>
      <point x="67" y="4" type="line"/>
      <point x="670" y="868" type="line"/>
      <point x="670" y="-500" type="line"/>
      <point x="860" y="-500" type="line"/>
      <point x="860" y="920" type="line"/>
      <point x="700" y="920" type="line"/>
      <point x="59" y="0" type="line"/>
      <point x="753" y="0" type="line"/>
    </contour>
  </outline>
</glyph>
<glyph name="h.sc" format="2">
  <advance width="1330"/>
  <anchor x="665" y="0" name="bottom"/>
  <anchor x="307" y="0" name="cedilla"/>
  <anchor x="665" y="1020" name="top"/>
  <outline>
    <contour>
      <point x="925" y="0" type="line"/>
      <point x="1116" y="0" type="line"/>
      <point x="1116" y="1020" type="line"/>
      <point x="925" y="1020" type="line"/>
    </contour>
    <contour>
      <point x="85" y="0" type="line"/>
      <point x="555" y="0" type="line"/>
      <point x="555" y="4" type="line"/>
      <point x="85" y="4" type="line"/>
    </contour>
    <contour>
      <point x="216" y="0" type="line"/>
      <point x="406" y="0" type="line"/>
      <point x="406" y="1020" type="line"/>
      <point x="216" y="1020" type="line"/>
    </contour>
    <contour>
      <point x="775" y="0" type="line"/>
      <point x="1245" y="0" type="line"/>
      <point x="1245" y="4" type="line"/>
      <point x="775" y="4" type="line"/>
    </contour>
    <contour>
      <point x="365" y="528" type="line"/>
      <point x="965" y="528" type="line"/>
      <point x="965" y="532" type="line"/>
      <point x="365" y="532" type="line"/>
    </contour>
    <contour>
      <point x="85" y="1016" type="line"/>
      <point x="555" y="1016" type="line"/>
      <point x="555" y="1020" type="line"/>
      <point x="85" y="1020" type="line"/>
    </contour>
    <contour>
      <point x="775" y="1016" type="line"/>
      <point x="1245" y="1016" type="line"/>
      <point x="1245" y="1020" type="line"/>
      <point x="775" y="1020" type="line"/>
    </contour>
  </outline>
</glyph>
<glyph name="longs_t" format="2">
  <advance width="1343"/>
  <outline>
    <contour>
      <point x="1044" y="-14" type="curve" smooth="yes"/>
      <point x="1166" y="-14"/>
      <point x="1270" y="76"/>
      <point x="1318" y="204" type="curve"/>
      <point x="1314" y="204" type="line"/>
      <point x="1274" y="105"/>
      <point x="1193" y="18"/>
      <point x="1123" y="18" type="curve" smooth="yes"/>
      <point x="1064" y="18"/>
      <point x="1042" y="47"/>
      <point x="1042" y="147" type="curve" smooth="yes"/>
      <point x="1043" y="1023" type="line" smooth="yes"/>
      <point x="1043" y="1285"/>
      <point x="909" y="1520"/>
      <point x="619" y="1520" type="curve" smooth="yes"/>
      <point x="329" y="1520"/>
      <point x="195" y="1285"/>
      <point x="195" y="1023" type="curve" smooth="yes"/>
      <point x="195" y="0" type="line"/>
      <point x="375" y="0" type="line"/>
      <point x="375" y="1080" type="line" smooth="yes"/>
      <point x="375" y="1334"/>
      <point x="429" y="1516"/>
      <point x="619" y="1516" type="curve" smooth="yes"/>
      <point x="809" y="1516"/>
      <point x="863" y="1334"/>
      <point x="863" y="1080" type="curve" smooth="yes"/>
      <point x="863" y="223" type="line" smooth="yes"/>
      <point x="863" y="114"/>
      <point x="880" y="-14"/>
    </contour>
    <contour>
      <point x="55" y="0" type="line"/>
      <point x="615" y="0" type="line"/>
      <point x="615" y="4" type="line"/>
      <point x="55" y="4" type="line"/>
    </contour>
    <contour>
      <point x="741" y="916" type="line"/>
      <point x="1256" y="916" type="line"/>
      <point x="1256" y="920" type="line"/>
      <point x="741" y="920" type="line"/>
    </contour>
  </outline>
</glyph>
<glyph name="nine.osf" format="2">
  <advance width="1119"/>
  <outline>
    <contour>
      <point x="210" y="-519.961" type="line"/>
      <point x="656" y="-519.961"/>
      <point x="1020" y="-127.468"/>
      <point x="1020" y="333.284" type="curve" smooth="yes"/>
      <point x="1020" y="731.465"/>
      <point x="834" y="940.036"/>
      <point x="532" y="940.036" type="curve" smooth="yes"/>
      <point x="230" y="940.036"/>
      <point x="60" y="731.465"/>
      <point x="60" y="447.05" type="curve" smooth="yes"/>
      <point x="60" y="124.713"/>
      <point x="296" y="-8.014"/>
      <point x="498" y="-8.014" type="curve" smooth="yes"/>
      <point x="760" y="-8.014"/>
      <point x="824" y="168.323"/>
      <point x="824" y="390.167" type="curve"/>
      <point x="820" y="390.167" type="line"/>
      <point x="820" y="181.596"/>
      <point x="750" y="5.259"/>
      <point x="542" y="5.259" type="curve" smooth="yes"/>
      <point x="364" y="5.259"/>
      <point x="260" y="192.973"/>
      <point x="260" y="447.05" type="curve" smooth="yes"/>
      <point x="260" y="663.205"/>
      <point x="308" y="936.244"/>
      <point x="526" y="936.244" type="curve" smooth="yes"/>
      <point x="744" y="936.244"/>
      <point x="820" y="644.244"/>
      <point x="820" y="390.167" type="curve"/>
      <point x="820" y="304.842" type="line"/>
      <point x="820" y="-135.053"/>
      <point x="558" y="-516.169"/>
      <point x="210" y="-516.169" type="curve"/>
    </contour>
  </outline>
</glyph>
<glyph name="nine.tosf" format="2">
  <advance width="1160"/>
  <outline>
    <contour>
      <point x="230" y="-519.961" type="line"/>
      <point x="676" y="-519.961"/>
      <point x="1040" y="-127.468"/>
      <point x="1040" y="333.284" type="curve" smooth="yes"/>
      <point x="1040" y="731.465"/>
      <point x="854" y="940.036"/>
      <point x="552" y="940.036" type="curve" smooth="yes"/>
      <point x="250" y="940.036"/>
      <point x="80" y="731.465"/>
      <point x="80" y="447.05" type="curve" smooth="yes"/>
      <point x="80" y="124.713"/>
      <point x="316" y="-8.014"/>
      <point x="518" y="-8.014" type="curve" smooth="yes"/>
      <point x="780" y="-8.014"/>
      <point x="844" y="168.323"/>
      <point x="844" y="390.167" type="curve"/>
      <point x="840" y="390.167" type="line"/>
      <point x="840" y="181.596"/>
      <point x="770" y="5.259"/>
      <point x="562" y="5.259" type="curve" smooth="yes"/>
      <point x="384" y="5.259"/>
      <point x="280" y="192.973"/>
      <point x="280" y="447.05" type="curve" smooth="yes"/>
      <point x="280" y="663.205"/>
      <point x="328" y="936.244"/>
      <point x="546" y="936.244" type="curve" smooth="yes"/>
      <point x="764" y="936.244"/>
      <point x="840" y="644.244"/>
      <point x="840" y="390.167" type="curve"/>
      <point x="840" y="304.842" type="line"/>
      <point x="840" y="-135.053"/>
      <point x="578" y="-516.169"/>
      <point x="230" y="-516.169" type="curve"/>
    </contour>
  </outline>
</glyph>
<glyph name="oslash.sc" format="2">
  <advance width="1239"/>
  <outline>
    <contour>
      <point x="100" y="-60" type="line"/>
      <point x="106" y="-60" type="line"/>
      <point x="1133" y="1081" type="line"/>
      <point x="1126" y="1081" type="line"/>
    </contour>
    <component base="o.sc"/>
  </outline>
</glyph>
<glyph name="seven.tosf" format="2">
  <advance width="1160"/>
  <outline>
    <contour>
      <point x="544" y="-519.947" type="curve" smooth="yes"/>
      <point x="632" y="-519.947"/>
      <point x="672" y="-461.21"/>
      <point x="672" y="-391.105" type="curve" smooth="yes"/>
      <point x="672" y="-285"/>
      <point x="544" y="-256.579"/>
      <point x="544" y="-118.263" type="curve" smooth="yes"/>
      <point x="544" y="-34.894"/>
      <point x="596" y="15.317"/>
      <point x="690" y="192.475" type="curve" smooth="yes"/>
      <point x="830" y="455.844"/>
      <point x="1066" y="920.055"/>
      <point x="1066" y="920.055" type="curve"/>
      <point x="156" y="920.055" type="line"/>
      <point x="156" y="597.949" type="line"/>
      <point x="160" y="597.949" type="line"/>
      <point x="160" y="740.055" type="line"/>
      <point x="966" y="740.055" type="line"/>
      <point x="884" y="575.212"/>
      <point x="762" y="338.37"/>
      <point x="684" y="196.264" type="curve" smooth="yes"/>
      <point x="572" y="-10.262"/>
      <point x="412" y="-207.315"/>
      <point x="412" y="-357" type="curve" smooth="yes"/>
      <point x="412" y="-468.789"/>
      <point x="466" y="-519.947"/>
    </contour>
  </outline>
</glyph>
<glyph name="three.tosf" format="2">
  <advance width="1160"/>
  <outline>
    <contour>
      <point x="522" y="-519.96" type="curve" smooth="yes"/>
      <point x="804" y="-519.96"/>
      <point x="1022" y="-368.283"/>
      <point x="1022" y="-121.808" type="curve" smooth="yes"/>
      <point x="1022" y="87.696"/>
      <point x="908" y="268.76"/>
      <point x="426" y="268.76" type="curve"/>
      <point x="426" y="265.916" type="line"/>
      <point x="764" y="265.916"/>
      <point x="820" y="46.932"/>
      <point x="820" y="-121.808" type="curve" smooth="yes"/>
      <point x="820" y="-328.468"/>
      <point x="720" y="-506.688"/>
      <point x="482" y="-506.688" type="curve" smooth="yes"/>
      <point x="239" y="-506.688"/>
      <point x="114" y="-383.45"/>
      <point x="114" y="-246.941" type="curve"/>
      <point x="112" y="-246.941" type="line"/>
      <point x="112" y="-294.34"/>
      <point x="166" y="-330.364"/>
      <point x="224" y="-330.364" type="curve" smooth="yes"/>
      <point x="283" y="-330.364"/>
      <point x="337" y="-291.496"/>
      <point x="337" y="-230.826" type="curve" smooth="yes"/>
      <point x="337" y="-162.571"/>
      <point x="291" y="-125.6"/>
      <point x="230" y="-125.6" type="curve" smooth="yes"/>
      <point x="160" y="-125.6"/>
      <point x="110" y="-169.207"/>
      <point x="110" y="-246.941" type="curve" smooth="yes"/>
      <point x="110" y="-384.398"/>
      <point x="238" y="-519.96"/>
    </contour>
    <contour>
      <point x="426" y="266.864" type="line"/>
      <point x="888" y="266.864"/>
      <point x="962" y="429.916"/>
      <point x="962" y="619.512" type="curve" smooth="yes"/>
      <point x="962" y="829.016"/>
      <point x="765" y="938.034"/>
      <point x="542" y="938.034" type="curve" smooth="yes"/>
      <point x="338" y="938.034"/>
      <point x="169" y="816.692"/>
      <point x="169" y="679.235" type="curve" smooth="yes"/>
      <point x="169" y="601.501"/>
      <point x="224" y="561.686"/>
      <point x="285" y="561.686" type="curve" smooth="yes"/>
      <point x="335" y="561.686"/>
      <point x="398" y="591.073"/>
      <point x="398" y="666.911" type="curve" smooth="yes"/>
      <point x="398" y="733.27"/>
      <point x="344" y="767.397"/>
      <point x="285" y="767.397" type="curve" smooth="yes"/>
      <point x="234" y="767.397"/>
      <point x="171" y="736.114"/>
      <point x="171" y="679.235" type="curve"/>
      <point x="173" y="679.235" type="line"/>
      <point x="173" y="811.952"/>
      <point x="336" y="928.554"/>
      <point x="512" y="928.554" type="curve" smooth="yes"/>
      <point x="670" y="928.554"/>
      <point x="760" y="807.212"/>
      <point x="760" y="619.512" type="curve" smooth="yes"/>
      <point x="760" y="450.772"/>
      <point x="744" y="269.708"/>
      <point x="426" y="269.708" type="curve"/>
    </contour>
  </outline>
</glyph>
<glyph name="x.sc" format="2">
  <advance width="1244"/>
  <anchor x="572" y="0" name="bottom"/>
  <anchor x="662" y="1020" name="top"/>
  <outline>
    <contour>
      <point x="895" y="0" type="line"/>
      <point x="1135" y="0" type="line"/>
      <point x="372" y="1020" type="line"/>
      <point x="140" y="1020" type="line"/>
    </contour>
    <contour>
      <point x="30" y="0" type="line"/>
      <point x="365" y="0" type="line"/>
      <point x="365" y="4" type="line"/>
      <point x="30" y="4" type="line"/>
    </contour>
    <contour>
      <point x="167" y="0" type="line"/>
      <point x="172" y="0" type="line"/>
      <point x="644" y="594" type="line"/>
      <point x="639" y="594" type="line"/>
    </contour>
    <contour>
      <point x="730" y="0" type="line"/>
      <point x="1214" y="0" type="line"/>
      <point x="1214" y="4" type="line"/>
      <point x="730" y="4" type="line"/>
    </contour>
    <contour>
      <point x="71" y="1016" type="line"/>
      <point x="530" y="1016" type="line"/>
      <point x="530" y="1020" type="line"/>
      <point x="71" y="1020" type="line"/>
    </contour>
    <contour>
      <point x="609" y="514" type="line"/>
      <point x="614" y="514" type="line"/>
      <point x="1001" y="1016" type="line"/>
      <point x="996" y="1016" type="line"/>
    </contour>
    <contour>
      <point x="827" y="1016" type="line"/>
      <point x="1133" y="1016" type="line"/>
      <point x="1133" y="1020" type="line"/>
      <point x="827" y="1020" type="line"/>
    </contour>
  </outline>
</glyph>
<glyph name="zero.tf" format="2">
  <advance width="1160"/>
  <outline>
    <contour>
      <point x="580.879" y="-20" type="curve" smooth="yes"/>
      <point x="876.845" y="-20"/>
      <point x="1071.129" y="324"/>
      <point x="1071.129" y="750" type="curve" smooth="yes"/>
      <point x="1071.129" y="1176"/>
      <point x="858.688" y="1520"/>
      <point x="580.879" y="1520" type="curve" smooth="yes"/>
      <point x="303.071" y="1520"/>
      <point x="90.63" y="1176"/>
      <point x="90.63" y="750" type="curve" smooth="yes"/>
      <point x="90.63" y="324"/>
      <point x="284.914" y="-20"/>
    </contour>
    <contour>
      <point x="580.879" y="-16" type="curve" smooth="yes"/>
      <point x="337.57" y="-16"/>
      <point x="299.44" y="386"/>
      <point x="299.44" y="750" type="curve" smooth="yes"/>
      <point x="299.44" y="1114"/>
      <point x="355.728" y="1516"/>
      <point x="580.879" y="1516" type="curve" smooth="yes"/>
      <point x="806.031" y="1516"/>
      <point x="862.319" y="1114"/>
      <point x="862.319" y="750" type="curve" smooth="yes"/>
      <point x="862.319" y="386"/>
      <point x="824.189" y="-16"/>
    </contour>
  </outline>
</glyph>
